<svg width="21" height="21" viewBox="0 0 21 21" fill="none" xmlns="http://www.w3.org/2000/svg">
<path d="M16.6098 3.79642C17.1956 3.84036 17.7375 4.00146 18.1988 4.37493C18.3673 4.51406 18.5357 4.64587 18.6968 4.78501C18.7261 4.86556 18.7407 4.94611 18.7773 5.01934C18.9165 5.28296 19.1215 5.50997 19.1801 5.82485C19.1801 5.84682 19.2021 5.86147 19.224 5.87611C19.246 5.92005 19.268 5.97131 19.2899 6.01525C19.2899 6.0958 19.2826 6.16903 19.2826 6.24958C19.2826 6.37407 19.2606 6.50588 19.3998 6.57911C19.3998 6.71092 19.3998 6.83541 19.3998 6.96722C19.4364 7.01848 19.473 7.06974 19.5023 7.12832C19.5096 7.13564 19.5096 7.14297 19.5023 7.15761C19.5462 7.29675 19.5902 7.4432 19.6414 7.58234C19.6488 7.59698 19.6707 7.59698 19.7 7.60431C19.722 7.62628 19.7293 7.64824 19.7513 7.67021C19.722 7.86793 19.6341 8.07297 19.8391 8.23407C19.8391 11.2511 19.8391 14.2608 19.8391 17.2778C19.8025 17.3364 19.7366 17.3876 19.7293 17.4462C19.7147 17.578 19.7293 17.7099 19.7293 17.8417C19.7293 17.8636 19.7293 17.8783 19.7293 17.9002C19.6927 17.9442 19.6414 17.9808 19.6121 18.0321C19.5169 18.2298 19.4291 18.4348 19.3339 18.6325C19.3119 18.6838 19.2973 18.7424 19.2826 18.7936C19.2826 18.801 19.2826 18.8083 19.2753 18.8156C19.0556 19.0206 18.8359 19.233 18.6162 19.4454C18.6089 19.4527 18.6162 19.4673 18.6162 19.482C18.6089 19.4893 18.6016 19.4893 18.5869 19.4893C18.543 19.4966 18.4917 19.4966 18.4551 19.5186C18.2501 19.6504 18.0597 19.7895 17.8107 19.8262C17.7668 19.8335 17.7375 19.8994 17.7009 19.936C17.6789 19.936 17.6643 19.936 17.6423 19.936C17.5617 19.936 17.4885 19.9287 17.408 19.9287C17.2835 19.9287 17.1517 19.9067 17.0784 20.0458C12.5968 20.0458 8.12257 20.0458 3.64098 20.0458C3.55311 19.914 3.39201 19.8847 3.15035 19.9653C3.12838 19.958 3.10641 19.9506 3.08445 19.9433C3.05515 19.8994 3.04051 19.8481 2.99657 19.8262C2.79885 19.7236 2.59381 19.6138 2.38145 19.5406C2.26429 19.4966 2.19106 19.3209 2.02995 19.4161C1.91279 19.2843 1.78098 19.1598 1.67113 19.0206C1.29767 18.5593 1.08531 18.0321 0.982785 17.4536C0.975462 17.395 0.968139 17.3364 0.968139 17.2778C0.968139 13.7262 0.960816 10.1746 0.975462 6.62304C0.975462 6.04454 1.19515 5.51729 1.54665 5.04131C1.82491 4.66784 2.15444 4.37493 2.5572 4.16256C3.01122 3.92823 3.49453 3.7891 4.01445 3.81839C4.17555 3.82571 4.32933 3.81839 4.49043 3.81839C4.64421 3.82571 4.71012 3.75981 4.71012 3.5987C4.7028 3.37169 4.71012 3.14469 4.71012 2.925C4.69547 2.39775 4.8639 1.93641 5.17146 1.51901C5.44973 1.10161 5.80855 0.80137 6.26257 0.64759C6.50422 0.567039 6.76784 0.508456 7.02414 0.508456C9.28691 0.501133 11.5497 0.49381 13.8124 0.508456C14.3909 0.515779 14.9182 0.713496 15.3429 1.12358C15.3942 1.17484 15.4674 1.20413 15.5113 1.25539C15.5553 1.29932 15.5772 1.35791 15.6139 1.40917C15.6431 1.58492 15.7237 1.73137 15.8628 1.84122C15.8702 1.86318 15.8775 1.87783 15.8848 1.8998C15.8555 2.02429 15.8848 2.11216 16.0093 2.14878C16.0166 2.16342 16.0239 2.17807 16.0313 2.19271C15.98 2.32452 15.9654 2.44901 16.0239 2.55886C16.0606 2.98358 16.0898 3.36437 16.1191 3.7891L16.1118 3.80374C16.1265 3.79642 16.1484 3.79642 16.1631 3.7891C16.2802 3.79642 16.3974 3.80374 16.5146 3.81107L16.6098 3.79642ZM18.0084 18.6252C18.045 18.5886 18.0817 18.552 18.1183 18.5154C18.1988 18.4421 18.2794 18.3616 18.3599 18.2884C18.3892 18.2517 18.4185 18.2151 18.4405 18.1785C18.4771 18.1346 18.5137 18.098 18.5503 18.054C18.5503 18.0247 18.5576 17.9881 18.5576 17.9588C18.5943 17.9149 18.6236 17.8783 18.6602 17.8343C18.6602 17.7904 18.6675 17.7465 18.6675 17.7025C18.6895 17.6732 18.7114 17.6439 18.7334 17.6147C18.748 17.5414 18.77 17.4755 18.77 17.4023C18.77 14.2754 18.77 11.1486 18.77 8.02171C18.77 7.94848 18.748 7.86793 18.7334 7.7947C18.7114 7.76541 18.6821 7.73612 18.6602 7.71415C18.6309 7.67021 18.5943 7.6336 18.565 7.58966C18.4405 7.42124 18.3013 7.2821 18.3233 7.03312C18.3526 6.75486 18.3087 6.46926 18.294 6.18367C18.3673 6.08847 18.3526 6.03721 18.2281 6.02989C18.1915 5.93469 18.1476 5.84682 18.111 5.75162C18.1256 5.66375 18.111 5.59052 17.9938 5.59784C17.8547 5.45871 17.7082 5.31957 17.5691 5.18776C17.5617 5.12186 17.5764 5.02666 17.4592 5.08524C17.3494 5.03398 17.2395 4.98272 17.1297 4.93879C17.0784 4.90217 17.0198 4.87288 16.9686 4.83627C16.3315 4.83627 15.6871 4.82894 15.05 4.82894C15.05 4.19185 15.05 3.56209 15.0427 2.925C15.0427 2.70531 15.0427 2.49295 14.9402 2.27326C14.801 1.95838 14.2884 1.53366 13.893 1.53366C11.6595 1.54098 9.43336 1.54098 7.19989 1.53366C6.74588 1.53366 6.32847 1.61421 6.03556 1.98767C5.8891 2.17074 5.74264 2.36846 5.74264 2.63209C5.74264 3.36437 5.73532 4.09666 5.73532 4.82894C5.17146 4.82894 4.60028 4.82894 4.03642 4.83627C3.78744 4.84359 3.53114 4.80697 3.29681 4.93879C3.10641 5.04863 2.88673 5.12186 2.70366 5.2317C2.43271 5.40013 2.27893 5.67107 2.14712 5.94934C2.07389 6.0958 2.02263 6.26422 2.01531 6.42533C2.00799 7.61163 2.01531 8.79061 2.01531 9.97691C2.01531 12.496 2.01531 15.015 2.01531 17.5341C2.05192 17.6 2.08854 17.6586 2.11783 17.7245C2.15444 17.8343 2.19106 17.9442 2.23499 18.0467C2.27161 18.098 2.30822 18.1492 2.34484 18.1932C2.38145 18.2298 2.41807 18.2664 2.44736 18.303C2.52059 18.3762 2.59381 18.4495 2.66704 18.5227C2.70366 18.5593 2.74027 18.5959 2.77689 18.6325C2.82082 18.6691 2.85744 18.7058 2.90137 18.7424C3.00389 18.779 3.11374 18.8229 3.21626 18.8595C3.26019 18.8962 3.29681 18.9254 3.34075 18.9621C7.94682 18.9621 12.5529 18.9621 17.159 18.9621C17.2542 18.9621 17.3494 18.9401 17.4446 18.9254C17.4739 18.9035 17.5032 18.8815 17.5324 18.8595C17.5764 18.8595 17.6203 18.8522 17.6643 18.8522C17.7082 18.8156 17.7448 18.7863 17.7887 18.7497C17.818 18.7497 17.8547 18.7424 17.8839 18.7424C17.9279 18.6984 17.9718 18.6618 18.0084 18.6252Z" fill="#F1F1F1"/>
<path d="M19.7292 7.64848C19.7292 7.62651 19.7292 7.59722 19.7219 7.57525C19.6413 7.42147 19.5608 7.27502 19.4802 7.12124C19.4802 7.11391 19.4802 7.10659 19.4802 7.09195C19.4436 7.04069 19.407 6.98943 19.3777 6.93084C19.3777 6.79903 19.3777 6.67454 19.3777 6.54273C19.429 6.33769 19.3997 6.1473 19.2679 5.97887C19.2679 5.94958 19.2679 5.91296 19.2679 5.88367C19.2532 5.83241 19.2532 5.77383 19.2313 5.72257C19.18 5.57611 19.1214 5.43698 19.0702 5.29052C19.0921 5.2832 19.1141 5.26855 19.1287 5.26123C19.2166 5.3784 19.3118 5.49556 19.3777 5.62005C19.5022 5.84706 19.6121 6.08871 19.7292 6.32304C19.7292 6.34501 19.7292 6.3743 19.7365 6.39627C19.7732 6.57934 19.8098 6.76242 19.8391 6.94549C19.8391 7.0773 19.8391 7.21643 19.8464 7.34825C19.8537 7.39218 19.861 7.43612 19.883 7.48006C19.9782 7.71439 20.088 7.94872 20.1759 8.18305C20.2272 8.31486 20.2491 8.454 20.2858 8.59313C20.2858 10.7827 20.2858 12.9649 20.2858 15.1544C20.2858 16.0039 20.2858 16.8606 20.2858 17.7101C20.2491 17.8932 20.2125 18.0762 20.1832 18.2593C20.1832 18.2813 20.1832 18.3106 20.1759 18.3325C20.1027 18.4863 20.0295 18.6328 19.9562 18.7866C19.7146 19.3065 19.3411 19.7092 18.8505 20.0021C18.6308 20.134 18.3891 20.2365 18.1621 20.3536C18.1402 20.3536 18.1109 20.3536 18.0889 20.361C17.8912 20.3976 17.7008 20.4342 17.5031 20.4708C17.2321 20.4781 16.9539 20.4928 16.6829 20.4928C13.9002 20.4928 11.1249 20.4928 8.34217 20.4928C6.91421 20.4928 5.49358 20.4781 4.06562 20.4708C3.72144 20.3536 3.36262 20.2584 3.0331 20.1193C2.82806 20.0314 2.64498 19.8777 2.45459 19.7605C2.46924 19.7385 2.47656 19.7166 2.4912 19.6946C2.55711 19.7166 2.61569 19.7385 2.6816 19.7678C2.81341 19.8191 2.95254 19.8703 3.08436 19.9143C3.10632 19.9143 3.13562 19.9143 3.15758 19.9216C3.31869 19.9509 3.47247 19.9802 3.63357 20.0095C8.11516 20.0095 12.5894 20.0095 17.071 20.0095C17.2761 20.0607 17.4665 20.0314 17.6349 19.8996C17.6568 19.8996 17.6715 19.8996 17.6935 19.8996C17.8033 19.8703 17.9278 19.863 18.023 19.8117C18.2207 19.7092 18.3965 19.5774 18.5869 19.4603C18.5942 19.4603 18.6015 19.4603 18.6161 19.4529C18.9017 19.2991 19.1214 19.0795 19.2752 18.7939C19.2825 18.7865 19.2825 18.7792 19.2825 18.7646C19.3997 18.5742 19.5315 18.3984 19.634 18.2007C19.6853 18.1055 19.6926 17.981 19.7219 17.8712C19.7219 17.8492 19.7219 17.8346 19.7219 17.8126C19.8537 17.6442 19.883 17.4538 19.8317 17.2488C19.8317 14.2317 19.8317 11.222 19.8317 8.20502C19.8903 7.99998 19.8171 7.82423 19.7292 7.64848Z" fill="#A6A6A6"/>
<path d="M15.8628 1.88522C15.8628 1.86325 15.8628 1.84128 15.8628 1.81932C15.8848 1.79002 15.9067 1.75341 15.936 1.70947C16.1704 2.03168 16.3974 2.33192 16.4486 2.72735C16.4706 2.86648 16.5218 3.00562 16.5511 3.13743C16.5511 3.33515 16.5511 3.52554 16.5511 3.72326C16.5365 3.74523 16.5219 3.7672 16.4999 3.78184C16.3827 3.77452 16.2655 3.7672 16.1484 3.75987C16.1337 3.74523 16.1264 3.7379 16.1118 3.72326C16.1044 3.35712 16.0971 2.99097 16.0825 2.62483C16.0532 2.47837 16.0239 2.33192 15.9946 2.18546C15.9946 2.16349 15.9873 2.14152 15.9873 2.11223C15.9507 2.04632 15.9067 1.96577 15.8628 1.88522Z" fill="#A8A8A8"/>
<path d="M3.07719 19.907C2.94538 19.8558 2.81357 19.8045 2.67444 19.7606C2.60853 19.7386 2.54995 19.7166 2.48404 19.6873C2.4694 19.7093 2.46207 19.7313 2.44743 19.7533C2.63782 19.8777 2.82089 20.0315 3.02593 20.1121C3.36279 20.2512 3.71428 20.3464 4.05846 20.4636C3.89003 20.5075 3.72893 20.5295 3.5605 20.427C3.42869 20.3537 3.26759 20.3391 3.12845 20.2732C2.68908 20.0462 2.25703 19.8192 2.00806 19.3651C2.16916 19.2773 2.24239 19.453 2.35955 19.4896C2.57192 19.5629 2.76963 19.6727 2.97467 19.7752C3.02593 19.7972 3.0479 19.8558 3.07719 19.907Z" fill="#E2E2E2"/>
<path d="M19.7366 6.33027C19.6195 6.09594 19.5096 5.86161 19.3851 5.62728C19.3119 5.50279 19.2167 5.38562 19.1361 5.26846C19.1142 5.27578 19.0922 5.29043 19.0776 5.29775C19.1288 5.44421 19.1874 5.58334 19.2387 5.7298C19.2606 5.78106 19.2606 5.83964 19.2753 5.8909C19.2387 5.86161 19.1728 5.83232 19.1654 5.79571C19.1142 5.48815 18.9018 5.25381 18.7627 4.99019C18.7261 4.91696 18.7041 4.83641 18.6821 4.75586C19.0776 4.97555 19.3339 5.33437 19.5535 5.71515C19.6268 5.83964 19.6927 5.97145 19.7439 6.11059C19.7586 6.16917 19.7366 6.25705 19.7366 6.33027ZM19.0336 5.15862C19.0263 5.15862 19.0117 5.15862 19.0043 5.15862C19.0117 5.18059 19.0117 5.20255 19.019 5.23184C19.0263 5.23184 19.0263 5.23184 19.0336 5.23184C19.0336 5.20255 19.0336 5.18059 19.0336 5.15862Z" fill="#E2E2E2"/>
<path d="M18.1621 20.3536C18.3891 20.2365 18.6308 20.1339 18.8505 20.0021C19.3411 19.7092 19.7146 19.3065 19.9562 18.7865C20.0294 18.6328 20.1027 18.4863 20.1759 18.3325C20.1832 18.3984 20.2198 18.4717 20.1979 18.5229C19.9562 19.0355 19.6779 19.5335 19.202 19.8703C18.931 20.0607 18.6381 20.2145 18.3525 20.3683C18.3012 20.3976 18.2207 20.361 18.1621 20.3536Z" fill="#E2E2E2"/>
<path d="M16.5511 3.14469C16.5145 3.00556 16.4632 2.87375 16.4486 2.73461C16.39 2.33918 16.163 2.03894 15.936 1.71674C15.9067 1.76067 15.8847 1.79729 15.8627 1.82658C15.7163 1.71674 15.6284 1.57028 15.5991 1.38721C15.8994 1.46776 16.0605 1.71674 16.1996 1.95107C16.3607 2.24398 16.4705 2.56619 16.5804 2.88839C16.6024 2.9543 16.5584 3.05682 16.5511 3.14469Z" fill="#D7D7D7"/>
<path d="M20.2857 8.59998C20.2491 8.46089 20.2271 8.32179 20.1759 8.19002C20.088 7.95576 19.9782 7.7215 19.883 7.48724C19.8684 7.44332 19.8611 7.39939 19.8464 7.35547C20.0368 7.38475 20.0075 7.57509 20.088 7.6849C20.1832 7.81667 20.2491 7.9704 20.2784 8.12414C20.315 8.27787 20.2857 8.43892 20.2857 8.59998Z" fill="#E2E2E2"/>
<path d="M17.5032 20.4633C17.7008 20.4267 17.8912 20.3901 18.0888 20.3535C18.0303 20.3974 17.9717 20.478 17.9058 20.4853C17.774 20.4999 17.6349 20.478 17.5032 20.4633Z" fill="#E2E2E2"/>
<path d="M19.8464 6.95237C19.8098 6.76935 19.7732 6.58634 19.7439 6.40332C19.7878 6.46189 19.8683 6.52045 19.8757 6.58634C19.883 6.70347 19.861 6.82792 19.8464 6.95237Z" fill="#E2E2E2"/>
<path d="M20.1833 18.2663C20.22 18.0833 20.2566 17.9003 20.2858 17.7173C20.3737 17.9808 20.3298 18.1785 20.1833 18.2663Z" fill="#E2E2E2"/>
<path d="M16.5 3.78903C16.5146 3.76707 16.5293 3.74511 16.5512 3.73047C16.5659 3.74511 16.5732 3.75243 16.5878 3.76707C16.5586 3.77439 16.5293 3.78171 16.5 3.78903Z" fill="#D7D7D7"/>
<path d="M2.01522 17.5269C2.01522 15.0079 2.01522 12.4888 2.01522 9.96975C2.01522 8.78344 2.00789 7.60446 2.01522 6.41816C2.01522 6.25706 2.0738 6.08863 2.14703 5.94217C2.27884 5.66391 2.43262 5.39296 2.70357 5.22453C2.89396 5.10737 3.10632 5.03414 3.29672 4.93162C3.53105 4.79981 3.78735 4.83642 4.03633 4.8291C4.60019 4.82178 5.17137 4.82178 5.73523 4.82178C5.74255 4.8291 5.74988 4.83642 5.7572 4.84375C5.69129 4.85839 5.61806 4.88768 5.55216 4.88768C5.01027 4.89501 4.46838 4.88768 3.92648 4.88768C3.58231 4.88768 3.2601 4.98288 2.97451 5.15863C2.37404 5.53209 2.0738 6.09595 2.0738 6.80627C2.0738 10.1968 2.0738 13.5946 2.0738 16.985C2.0738 17.0583 2.05915 17.1388 2.08112 17.2047C2.16167 17.4757 2.21293 17.7686 2.35939 18.0029C2.73286 18.618 3.29672 18.9036 4.029 18.9036C8.26162 18.8963 12.4942 18.8963 16.7342 18.8963C16.8294 18.8963 16.9319 18.9036 17.0271 18.889C17.3127 18.8451 17.5836 18.7718 17.8326 18.618C18.4404 18.2299 18.7187 17.6587 18.7187 16.9484C18.7187 15.2861 18.7187 13.6312 18.7187 11.9689C18.7187 10.7753 18.7187 9.57431 18.7187 8.38069C18.7187 8.10242 18.6747 7.82415 18.4843 7.63375C18.2939 7.44336 18.2646 7.24564 18.2793 7.00399C18.2866 6.86486 18.3013 6.7184 18.272 6.58659C18.2061 6.31564 18.1475 6.03737 18.0083 5.80304C17.6422 5.17327 17.0564 4.89501 16.3387 4.89501C15.9653 4.89501 15.5918 4.89501 15.2257 4.89501C15.1671 4.89501 15.1012 4.86571 15.0426 4.85107C15.0499 4.84375 15.0572 4.83642 15.0646 4.8291C15.7016 4.8291 16.3461 4.83642 16.9831 4.83642C17.0344 4.87304 17.093 4.90233 17.1442 4.93894C17.2541 4.9902 17.3639 5.04146 17.4738 5.0854C17.5104 5.12201 17.547 5.15131 17.5836 5.18792C17.7228 5.32705 17.8692 5.46619 18.0083 5.598C18.045 5.64926 18.0889 5.70052 18.1255 5.75178C18.1621 5.84698 18.2061 5.93485 18.2427 6.03005C18.2646 6.08131 18.2866 6.13257 18.3086 6.18383C18.3232 6.46942 18.3672 6.75501 18.3379 7.03328C18.3086 7.28226 18.455 7.42871 18.5795 7.58982C18.6088 7.63376 18.6454 7.67037 18.6747 7.71431C18.6967 7.7436 18.726 7.77289 18.748 7.79486C18.7626 7.86809 18.7846 7.94864 18.7846 8.02187C18.7846 11.1487 18.7846 14.2756 18.7846 17.4024C18.7846 17.4757 18.7626 17.5416 18.748 17.6148C18.726 17.6441 18.704 17.6734 18.682 17.7027C18.682 17.7466 18.6747 17.7906 18.6747 17.8345C18.6381 17.8784 18.6088 17.915 18.5722 17.959C18.5722 17.9883 18.5649 18.0249 18.5649 18.0542C18.5283 18.0981 18.4917 18.1347 18.455 18.1787C18.4257 18.2153 18.3965 18.2519 18.3745 18.2885C18.2939 18.3617 18.2134 18.4423 18.1328 18.5155C18.0962 18.5521 18.0596 18.5888 18.023 18.6254C17.9791 18.662 17.9424 18.6986 17.8985 18.7352C17.8692 18.7352 17.8326 18.7425 17.8033 18.7425C17.7594 18.7791 17.7228 18.8084 17.6788 18.8451C17.6349 18.8451 17.5909 18.8524 17.547 18.8524C17.5177 18.8743 17.4884 18.8963 17.4591 18.9183C17.3639 18.9329 17.2687 18.9549 17.1735 18.9549C12.5675 18.9549 7.96138 18.9549 3.3553 18.9549C3.31136 18.9183 3.27475 18.889 3.23081 18.8524C3.12829 18.8158 3.01845 18.7718 2.91593 18.7352C2.87199 18.6986 2.83538 18.662 2.79144 18.6254C2.75483 18.5888 2.71821 18.5521 2.6816 18.5155C2.60837 18.4423 2.53514 18.3691 2.46191 18.2958C2.4253 18.2592 2.38868 18.2226 2.35939 18.186C2.32278 18.1347 2.28616 18.0835 2.24955 18.0395C2.21293 17.9297 2.17632 17.8199 2.13238 17.7173C2.08112 17.6514 2.05183 17.5928 2.01522 17.5269Z" fill="#AEABBE"/>
<path d="M5.74268 4.82165C5.74268 4.08937 5.75 3.35708 5.75 2.6248C5.75 2.3685 5.89646 2.16346 6.04291 1.98038C6.33583 1.60692 6.75323 1.52637 7.20725 1.52637C9.44072 1.53369 11.6669 1.53369 13.9003 1.52637C14.2958 1.52637 14.8084 1.95109 14.9475 2.26598C15.05 2.48566 15.05 2.69802 15.05 2.91771C15.0574 3.5548 15.0574 4.18457 15.0574 4.82165C15.05 4.82898 15.0427 4.8363 15.0354 4.84362C15.0207 4.78504 14.9914 4.71913 14.9914 4.66055C14.9914 4.11866 14.9988 3.57677 14.9841 3.03488C14.9841 2.8518 14.9475 2.66141 14.9036 2.48566C14.7791 1.97306 14.2665 1.61424 13.7759 1.60692C11.5277 1.5996 9.27229 1.5996 7.02418 1.60692C6.84843 1.60692 6.65071 1.68015 6.48961 1.7607C6.02094 2.00235 5.80858 2.41243 5.80858 2.93968C5.80858 3.50354 5.80858 4.07472 5.80858 4.63858C5.80858 4.70449 5.77929 4.77772 5.76464 4.84362C5.75732 4.8363 5.75 4.82898 5.74268 4.82165Z" fill="#AEABBE"/>
<path d="M19.7071 17.8564C19.6778 17.9663 19.6705 18.0907 19.6192 18.1859C19.5167 18.3835 19.385 18.5592 19.2678 18.7496C19.2825 18.6983 19.2971 18.6398 19.3191 18.5885C19.4069 18.3835 19.4948 18.1859 19.5973 17.9882C19.6192 17.937 19.6705 17.9004 19.7071 17.8564Z" fill="#E2E2E2"/>
<path d="M18.5721 19.4453C18.3817 19.5624 18.206 19.6942 18.0084 19.7967C17.9132 19.8479 17.7888 19.8553 17.679 19.8846C17.7156 19.8479 17.7522 19.7821 17.7888 19.7747C18.0377 19.7381 18.2353 19.599 18.433 19.4673C18.4769 19.4526 18.5281 19.4526 18.5721 19.4453Z" fill="#E2E2E2"/>
<path d="M19.2605 18.7793C19.1068 19.0648 18.8871 19.2844 18.6016 19.4382C18.6016 19.4235 18.5943 19.4089 18.6016 19.4016C18.8213 19.1966 19.0409 18.9843 19.2605 18.7793Z" fill="#E2E2E2"/>
<path d="M19.7293 7.64795C19.8172 7.82364 19.8904 7.99934 19.8172 8.197C19.6195 8.04326 19.6927 7.83829 19.7293 7.64795Z" fill="#E2E2E2"/>
<path d="M19.2679 5.98584C19.3996 6.15421 19.4289 6.34455 19.3777 6.54953C19.2386 6.47632 19.2605 6.34455 19.2605 6.2201C19.2605 6.13957 19.2605 6.06637 19.2679 5.98584Z" fill="#E2E2E2"/>
<path d="M19.8172 17.2412C19.8612 17.4462 19.8392 17.6365 19.7074 17.8049C19.7074 17.6731 19.6928 17.5414 19.7074 17.4096C19.7148 17.351 19.7733 17.2925 19.8172 17.2412Z" fill="#E2E2E2"/>
<path d="M17.6201 19.8846C17.4517 20.0163 17.2614 20.0456 17.0564 19.9944C17.1296 19.8553 17.2614 19.8772 17.3858 19.8772C17.4664 19.8772 17.5469 19.8772 17.6201 19.8846Z" fill="#E2E2E2"/>
<path d="M3.62623 19.9947C3.46518 19.9655 3.31144 19.9362 3.15039 19.9069C3.38465 19.8337 3.53838 19.863 3.62623 19.9947Z" fill="#E2E2E2"/>
<path d="M15.9946 2.19287C16.0239 2.33928 16.0532 2.4857 16.0824 2.63211C15.936 2.50766 15.936 2.35393 15.9946 2.19287Z" fill="#D7D7D7"/>
<path d="M19.4875 7.12109C19.5681 7.27483 19.6486 7.42124 19.7291 7.57497C19.6925 7.56765 19.6413 7.56033 19.634 7.54569C19.5754 7.4066 19.5315 7.26019 19.4875 7.12109Z" fill="#E2E2E2"/>
<path d="M15.8628 1.88525C15.9067 1.96578 15.9507 2.03899 15.9946 2.11951C15.8701 2.09023 15.8335 2.00238 15.8628 1.88525Z" fill="#D7D7D7"/>
<path d="M18.3012 6.18352C18.2793 6.13227 18.2573 6.08103 18.2354 6.02979C18.3598 6.03711 18.3744 6.09567 18.3012 6.18352Z" fill="#F0EFF0"/>
<path d="M17.1369 4.93891C17.0856 4.90231 17.0271 4.87303 16.9758 4.83643C17.0271 4.86571 17.0783 4.90231 17.1369 4.93891Z" fill="#EFEFF0"/>
<path d="M2.01538 17.5269C2.05198 17.5927 2.08859 17.6513 2.11787 17.7172C2.08127 17.6513 2.05198 17.5927 2.01538 17.5269Z" fill="#EEEDEE"/>
<path d="M2.23511 18.0391C2.27171 18.0903 2.30831 18.1416 2.34492 18.1855C2.30831 18.1416 2.27171 18.0903 2.23511 18.0391Z" fill="#EEEDEE"/>
<path d="M19.3779 6.93799C19.4145 6.98923 19.4511 7.04048 19.4804 7.09904C19.4438 7.04048 19.4145 6.98923 19.3779 6.93799Z" fill="#E2E2E2"/>
<path d="M18.4478 18.186C18.4844 18.1421 18.521 18.1054 18.5576 18.0615C18.521 18.1054 18.4844 18.1494 18.4478 18.186Z" fill="#EDEDEE"/>
<path d="M2.78418 18.625C2.8281 18.6616 2.86471 18.6982 2.90863 18.7348C2.86471 18.6982 2.82078 18.6616 2.78418 18.625Z" fill="#EDEDED"/>
<path d="M17.8914 18.7348C17.9353 18.6982 17.9719 18.6616 18.0158 18.625C17.9719 18.6616 17.928 18.6982 17.8914 18.7348Z" fill="#EDEDEE"/>
<path d="M3.22363 18.8521C3.26756 18.8887 3.30416 18.9179 3.34808 18.9545C3.30416 18.9179 3.26024 18.8887 3.22363 18.8521Z" fill="#EDEDED"/>
<path d="M18.1184 5.75878C18.0817 5.70754 18.0378 5.65629 18.0012 5.60505C18.111 5.59773 18.1257 5.66361 18.1184 5.75878Z" fill="#F0EFF0"/>
<path d="M17.5764 5.18769C17.5398 5.15108 17.5032 5.1218 17.4666 5.0852C17.5837 5.03395 17.569 5.1218 17.5764 5.18769Z" fill="#EFEFF0"/>
<path d="M18.5649 17.9736C18.6015 17.9296 18.6308 17.893 18.6674 17.8491C18.6308 17.893 18.5942 17.9296 18.5649 17.9736Z" fill="#EDEDEE"/>
<path d="M17.6716 18.8452C17.7156 18.8086 17.7522 18.7793 17.7961 18.7427C17.7522 18.7793 17.7082 18.8086 17.6716 18.8452Z" fill="#EDEDEE"/>
<path d="M2.34473 18.1934C2.38133 18.23 2.41793 18.2666 2.44722 18.3032C2.41061 18.2666 2.38133 18.23 2.34473 18.1934Z" fill="#EEEDEE"/>
<path d="M2.67432 18.5225C2.71092 18.5591 2.74752 18.5957 2.78413 18.6323C2.74752 18.5883 2.71092 18.5591 2.67432 18.5225Z" fill="#EDEDED"/>
<path d="M18.0085 18.6249C18.0451 18.5883 18.0818 18.5517 18.1184 18.5151C18.0818 18.5591 18.0451 18.5957 18.0085 18.6249Z" fill="#EDEDEE"/>
<path d="M18.3672 18.2958C18.3965 18.2592 18.4258 18.2226 18.4477 18.186C18.4184 18.2226 18.3965 18.2592 18.3672 18.2958Z" fill="#EDEDEE"/>
<path d="M18.6748 17.7172C18.6968 17.688 18.7187 17.6587 18.7407 17.6294C18.7187 17.6587 18.6968 17.688 18.6748 17.7172Z" fill="#EDEDEE"/>
<path d="M18.7407 7.80904C18.7187 7.77976 18.6894 7.75048 18.6675 7.72852C18.6894 7.75048 18.7114 7.77976 18.7407 7.80904Z" fill="#EDEDEE"/>
<path d="M17.4519 18.9179C17.4812 18.896 17.5105 18.874 17.5398 18.8521C17.5105 18.874 17.4812 18.896 17.4519 18.9179Z" fill="#EDEDEE"/>
<path d="M16.1118 3.73047C16.1265 3.74511 16.1338 3.75243 16.1484 3.76707C16.1338 3.77439 16.1118 3.77439 16.0972 3.78171C16.0972 3.76707 16.1045 3.74511 16.1118 3.73047Z" fill="#D7D7D7"/>
<path d="M19.0337 5.15869C19.0337 5.18065 19.0337 5.20261 19.0337 5.22457C19.0264 5.22457 19.0264 5.22457 19.019 5.22457C19.0117 5.20261 19.0117 5.18065 19.0044 5.15137C19.0117 5.15869 19.019 5.15869 19.0337 5.15869Z" fill="#A6A6A6"/>
<path d="M5.76459 4.84379C5.77924 4.77789 5.80853 4.70466 5.80853 4.63875C5.80853 4.07489 5.80853 3.50371 5.80853 2.93985C5.80853 2.41993 6.02089 2.00985 6.48956 1.76087C6.65066 1.67299 6.84105 1.60709 7.02413 1.60709C9.27224 1.59977 11.5277 1.59244 13.7758 1.60709C14.2664 1.60709 14.779 1.97323 14.9035 2.48583C14.9475 2.6689 14.9768 2.85197 14.9841 3.03505C14.9914 3.57694 14.9841 4.11883 14.9914 4.66072C14.9914 4.7193 15.0207 4.78521 15.0353 4.84379C15.0939 4.85844 15.1598 4.88773 15.2184 4.88773C15.5919 4.89505 15.9653 4.88773 16.3315 4.88773C17.0564 4.88773 17.635 5.17332 18.0011 5.79576C18.1402 6.0301 18.1915 6.31569 18.2647 6.57931C18.3013 6.71112 18.2794 6.85758 18.272 6.99671C18.2647 7.23104 18.2867 7.43608 18.4771 7.62648C18.6675 7.81687 18.7114 8.09514 18.7114 8.37341C18.7041 9.56704 18.7114 10.768 18.7114 11.9616C18.7114 13.6239 18.7114 15.2789 18.7114 16.9412C18.7114 17.6515 18.4331 18.2227 17.8253 18.6108C17.5764 18.7645 17.3054 18.8378 17.0198 18.8817C16.9246 18.8964 16.8221 18.889 16.7269 18.889C12.4943 18.889 8.26169 18.8817 4.02175 18.8964C3.28947 18.8964 2.72561 18.6108 2.35214 17.9956C2.20568 17.7613 2.16175 17.4684 2.07387 17.1975C2.0519 17.1315 2.06655 17.051 2.06655 16.9778C2.06655 13.5873 2.06655 10.1895 2.06655 6.799C2.06655 6.08868 2.35946 5.53214 2.96726 5.15135C3.25285 4.9756 3.57506 4.88041 3.91923 4.88041C4.46113 4.88041 5.00302 4.88041 5.54491 4.88041C5.62546 4.88773 5.69869 4.85844 5.76459 4.84379ZM17.7228 17.9078C17.9205 17.7906 18.1036 17.4098 18.0597 17.2048C18.0597 17.1608 18.0597 17.1169 18.0597 17.073C18.0743 17.0217 18.1036 16.9778 18.1109 16.9265C18.1109 16.2455 18.1109 15.5645 18.1109 14.8834C18.1109 14.8395 18.0743 14.7882 18.0597 14.7443C18.067 14.6198 18.0816 14.488 18.0816 14.3635C18.0816 13.4481 18.0816 12.5401 18.0816 11.6248C18.0816 11.5003 18.067 11.3685 18.0597 11.244C18.0743 11.1854 18.1109 11.1268 18.1109 11.0682C18.1109 10.2041 18.1109 9.34003 18.1109 8.48325C18.1109 8.42467 18.089 8.37341 18.0743 8.31483C18.0743 8.27821 18.0743 8.2416 18.0743 8.20498C18.1036 8.08782 18.0597 8.01459 17.9425 7.97065C17.9132 7.94136 17.8913 7.89742 17.862 7.88278C17.6789 7.78758 17.635 7.64112 17.6423 7.44341C17.6569 7.17978 17.6642 6.91616 17.6423 6.65986C17.5983 6.05939 17.1224 5.54679 16.4999 5.52482C15.9507 5.51017 15.4015 5.51749 14.8596 5.52482C14.6912 5.52482 14.5374 5.51017 14.3982 5.40033C14.3982 5.29781 14.3909 5.19529 14.3909 5.09277C14.3909 4.35316 14.3909 3.62087 14.3909 2.88127C14.3909 2.69087 14.3397 2.52245 14.1786 2.40528C14.0687 2.25882 13.9149 2.19292 13.7392 2.20024C13.439 2.20756 13.1314 2.22953 12.8312 2.22953C12.3845 2.22953 11.9304 2.20024 11.4837 2.20024C10.0338 2.19292 8.5839 2.20024 7.13397 2.20024C6.6946 2.20024 6.41633 2.47851 6.41633 2.91056C6.41633 3.73804 6.41633 4.56552 6.40901 5.39301C6.26987 5.51017 6.10877 5.52482 5.93302 5.52482C5.25199 5.51749 4.57097 5.52482 3.88994 5.52482C3.5897 5.52482 3.34073 5.64198 3.12104 5.8397C2.74025 6.18388 2.67435 6.62325 2.73293 7.10656C2.73293 7.12852 2.73293 7.15049 2.73293 7.17246C2.71828 7.23837 2.69632 7.29695 2.69632 7.36286C2.69632 10.5556 2.69632 13.7484 2.69632 16.9412C2.69632 17.0071 2.71828 17.0656 2.73293 17.1315C2.73293 17.1682 2.73293 17.2048 2.74025 17.2341C2.74758 17.5123 2.8501 17.7467 3.09175 17.9004C3.21624 18.1128 3.56774 18.2812 3.79474 18.2373C3.95585 18.2519 4.10963 18.2739 4.27073 18.2739C6.5042 18.2666 8.73035 18.2666 10.9638 18.2593C12.9923 18.2519 15.0207 18.2446 17.0564 18.2373C17.2322 18.2812 17.6057 18.0982 17.7228 17.9078Z" fill="#434447"/>
<path d="M17.0271 18.2445C14.9987 18.2518 12.9703 18.2592 10.9345 18.2665C8.70104 18.2738 6.47489 18.2811 4.24142 18.2811C4.08031 18.2811 3.92653 18.2592 3.76543 18.2445C3.72149 18.2079 3.67756 18.1713 3.6263 18.142C3.47984 18.0688 3.33338 17.9955 3.18692 17.9296C3.15031 17.915 3.10637 17.915 3.06976 17.9003C3.06976 17.871 3.07708 17.8271 3.06244 17.8125C2.93795 17.6733 2.85007 17.5269 2.8281 17.3438C2.82078 17.3072 2.7622 17.2706 2.72558 17.234C2.72558 17.1973 2.72558 17.1607 2.71826 17.1314C2.72558 17.0655 2.74755 16.9996 2.74755 16.941C2.74755 13.7483 2.74755 10.5628 2.74755 7.37007C2.74755 7.30416 2.73291 7.23826 2.71826 7.17968C2.71826 7.15771 2.71826 7.13574 2.71826 7.11377C2.74755 7.14306 2.78417 7.16503 2.80614 7.19432C3.04779 7.52385 3.32606 7.74354 3.77275 7.73621C4.58559 7.72157 5.39843 7.72889 6.20394 7.72889C6.26985 7.72889 6.33576 7.6996 6.40898 7.68495C6.43095 7.6996 6.4456 7.70692 6.46757 7.72157C7.28041 7.72889 8.09324 7.72889 8.89876 7.73621C9.1038 7.73621 9.31616 7.72889 9.5212 7.72157C9.88734 7.72157 10.2535 7.72157 10.6196 7.72157C10.9858 7.72157 11.3519 7.72157 11.7181 7.72889C12.1574 7.72889 12.5968 7.72889 13.0435 7.72889C13.4829 7.72889 13.9149 7.73621 14.3543 7.73621C15.3209 7.73621 16.2802 7.74354 17.2468 7.73621C17.4445 7.73621 17.613 7.78015 17.7667 7.91196C17.818 7.9559 17.8912 7.96322 17.9571 7.98519C18.0011 8.06574 18.045 8.13897 18.0889 8.21952C18.0889 8.25614 18.0889 8.29275 18.0889 8.32936C18.0816 8.39527 18.0597 8.46118 18.0597 8.51976C18.0597 9.06897 18.0597 9.61819 18.0597 10.1674C18.0597 10.5335 18.067 10.8997 18.0743 11.2658C18.0743 11.2658 18.0743 11.2658 18.067 11.2658C17.1809 11.2658 16.2948 11.2512 15.4161 11.2658C15.2037 11.2658 14.9767 11.3171 14.779 11.405C14.2957 11.6173 13.9515 11.9688 13.7758 12.4887C13.6366 12.9135 13.6513 13.3455 13.8344 13.7336C14.1419 14.378 14.6911 14.7442 15.4088 14.7662C16.2948 14.7954 17.1809 14.7662 18.0597 14.7662C18.0523 15.308 18.0523 15.8426 18.045 16.3845C18.045 16.6188 18.0523 16.8532 18.0597 17.0948C18.0597 17.1388 18.0597 17.1827 18.0597 17.2266C18.0304 17.2559 17.9791 17.2779 17.9791 17.3145C17.9498 17.5196 17.8619 17.688 17.7301 17.8418C17.7155 17.8637 17.7228 17.9003 17.7228 17.9296C17.7008 17.9296 17.6642 17.9223 17.6496 17.937C17.5031 18.0688 17.3347 18.1493 17.1443 18.1786C17.1004 18.1566 17.0637 18.2152 17.0271 18.2445Z" fill="#EEEEEE"/>
<path d="M18.0597 14.7441C17.1736 14.7441 16.2876 14.7734 15.4088 14.7441C14.6912 14.7222 14.142 14.356 13.8344 13.7116C13.6513 13.3235 13.6294 12.8988 13.7758 12.4667C13.9442 11.9468 14.2884 11.5953 14.779 11.3829C14.9768 11.2951 15.2038 11.2438 15.4161 11.2438C16.3022 11.2292 17.1883 11.2438 18.067 11.2438C18.0743 11.3683 18.089 11.5001 18.089 11.6246C18.089 12.54 18.089 13.448 18.089 14.3634C18.0817 14.4878 18.067 14.6123 18.0597 14.7441ZM15.2331 13.4553C15.482 13.4553 15.6944 13.243 15.6944 12.9867C15.6944 12.7377 15.482 12.518 15.2331 12.518C14.9694 12.5253 14.7644 12.7304 14.7644 12.994C14.7644 13.2503 14.9841 13.4626 15.2331 13.4553Z" fill="#76777A"/>
<path d="M6.46019 7.70705C6.43823 7.6924 6.42358 7.68508 6.40161 7.67043C6.40161 6.90885 6.40161 6.1546 6.40161 5.39302C6.40161 4.56554 6.40161 3.73806 6.40893 2.91057C6.40893 2.4712 6.6872 2.20026 7.12657 2.20026C8.5765 2.20026 10.0264 2.20026 11.4764 2.20026C11.923 2.20026 12.3771 2.22955 12.8238 2.22955C13.124 2.22955 13.4316 2.20758 13.7318 2.20026C13.9075 2.19293 14.0613 2.25884 14.1712 2.4053C14.1638 2.41262 14.1565 2.41994 14.1492 2.42726C13.8709 2.20758 13.5414 2.26616 13.2192 2.25884C13.0801 2.25152 13.0288 2.28813 13.0288 2.44191C13.0361 4.1994 13.0361 5.95688 13.0361 7.71437C12.5968 7.71437 12.1574 7.71437 11.7107 7.71437C11.7107 5.97885 11.7107 4.25066 11.7107 2.51514C11.7107 2.26616 11.696 2.25884 11.4544 2.25884C10.0264 2.25884 8.59847 2.26616 7.17051 2.25152C6.7824 2.24419 6.46019 2.57372 6.46019 2.96916C6.47484 4.55089 6.46752 6.12531 6.46019 7.70705Z" fill="#838487"/>
<path d="M6.4017 5.39258C6.4017 6.15416 6.4017 6.90841 6.4017 7.66999C6.33579 7.68463 6.26988 7.71392 6.19666 7.71392C5.38382 7.71392 4.57098 7.7066 3.76547 7.72125C3.32609 7.72857 3.0405 7.50888 2.79885 7.17936C2.77688 7.15006 2.74027 7.1281 2.71097 7.0988C2.65971 6.62282 2.72562 6.18345 3.10641 5.83927C3.32609 5.64156 3.57507 5.52439 3.87531 5.52439C4.55634 5.52439 5.23736 5.52439 5.91839 5.52439C6.10146 5.52439 6.26256 5.50974 6.4017 5.39258Z" fill="#7A7B7E"/>
<path d="M17.9424 7.9629C17.8765 7.94093 17.8033 7.93361 17.7521 7.88967C17.5983 7.76518 17.4298 7.71392 17.2321 7.71392C16.2655 7.71392 15.3062 7.71392 14.3396 7.71392C14.3396 6.94502 14.3469 6.17612 14.3469 5.40722C14.3616 5.3999 14.3762 5.3999 14.3909 5.39258C14.5227 5.50242 14.6838 5.52439 14.8522 5.51707C15.4014 5.50974 15.9506 5.50242 16.4925 5.51707C17.1223 5.53171 17.5909 6.05164 17.6349 6.64479C17.6569 6.90841 17.6495 7.16471 17.6349 7.42833C17.6276 7.62605 17.6715 7.77251 17.8546 7.8677C17.8985 7.897 17.9205 7.93361 17.9424 7.9629Z" fill="#7A7B7E"/>
<path d="M2.71825 7.17236C2.72558 7.23827 2.74755 7.30418 2.74755 7.36276C2.74755 10.5555 2.74755 13.741 2.74755 16.9337C2.74755 16.9996 2.7329 17.0655 2.71825 17.1241C2.70361 17.0582 2.68164 16.9996 2.68164 16.9337C2.68164 13.741 2.68164 10.5482 2.68164 7.35543C2.68164 7.29685 2.70361 7.23095 2.71825 7.17236Z" fill="#AC6472"/>
<path d="M14.3981 5.40032C14.3835 5.40765 14.3689 5.40765 14.3542 5.41497C14.3469 5.34174 14.3249 5.27584 14.3249 5.20261C14.3249 4.47764 14.3176 3.75268 14.3249 3.02772C14.3249 2.80071 14.2663 2.61031 14.1492 2.42724C14.1565 2.41992 14.1638 2.4126 14.1711 2.40527C14.3322 2.52244 14.3835 2.69086 14.3835 2.88126C14.3835 3.62087 14.3835 4.35315 14.3835 5.09276C14.3835 5.18796 14.3908 5.2978 14.3981 5.40032Z" fill="#7581BA"/>
<path d="M18.0598 11.2436C18.0525 10.8775 18.0525 10.5113 18.0452 10.1452C18.0452 9.59595 18.0452 9.04674 18.0452 8.49752C18.0452 8.43162 18.0671 8.36571 18.0745 8.30713C18.0891 8.36571 18.1111 8.41697 18.1111 8.47555C18.1111 9.33965 18.1111 10.2037 18.1111 11.0605C18.1111 11.1264 18.0818 11.185 18.0598 11.2436Z" fill="#AD6472"/>
<path d="M18.0671 17.0728C18.0598 16.8385 18.0525 16.6041 18.0525 16.3625C18.0525 15.8206 18.0598 15.286 18.0671 14.7441C18.0818 14.7881 18.1184 14.8393 18.1184 14.8833C18.1184 15.5643 18.1184 16.2453 18.1184 16.9264C18.1111 16.9703 18.0818 17.0215 18.0671 17.0728Z" fill="#AD6472"/>
<path d="M3.06982 17.9077C3.10643 17.915 3.15035 17.915 3.18695 17.937C3.33337 18.0029 3.4871 18.0761 3.62619 18.1493C3.67744 18.1786 3.72136 18.2152 3.76529 18.2518C3.54567 18.2884 3.19428 18.12 3.06982 17.9077Z" fill="#AC6472"/>
<path d="M17.7228 17.9C17.7228 17.8708 17.7155 17.8342 17.7301 17.8122C17.8619 17.6585 17.9497 17.4901 17.979 17.2851C17.9863 17.2558 18.0302 17.2265 18.0595 17.1973C18.1035 17.4096 17.9204 17.7829 17.7228 17.9Z" fill="#AD6472"/>
<path d="M2.71826 17.2339C2.75486 17.2705 2.82075 17.3071 2.82075 17.3437C2.84271 17.534 2.93788 17.6804 3.05501 17.8122C3.06965 17.8269 3.06233 17.8708 3.06233 17.9001C2.82807 17.7463 2.72558 17.5121 2.71826 17.2339Z" fill="#AC6472"/>
<path d="M17.0271 18.2445C17.0637 18.2152 17.1003 18.1566 17.1442 18.1493C17.3419 18.12 17.5103 18.0395 17.6494 17.9077C17.664 17.8931 17.6933 17.9077 17.7226 17.9004C17.6054 18.098 17.2321 18.2811 17.0271 18.2445Z" fill="#AD6472"/>
<path d="M18.0744 8.19764C18.0305 8.11711 17.9866 8.04391 17.9426 7.96338C18.0598 8.0073 18.1037 8.08051 18.0744 8.19764Z" fill="#AD6472"/>
<path d="M6.46021 7.70651C6.46021 6.12477 6.47485 4.55035 6.46021 2.96862C6.46021 2.57318 6.78241 2.25098 7.17052 2.25098C8.59848 2.26562 10.0264 2.2583 11.4544 2.2583C11.7034 2.2583 11.7107 2.26562 11.7107 2.5146C11.7107 4.25012 11.7107 5.97831 11.7107 7.71383C11.3446 7.71383 10.9784 7.71383 10.6123 7.70651C10.6123 6.62272 10.6123 5.53894 10.6123 4.45516C10.6123 4.20618 10.6123 4.20618 10.356 4.20618C10.1582 4.20618 9.95321 4.20618 9.75549 4.20618C9.51384 4.20618 9.51384 4.20618 9.51384 4.45516C9.51384 5.53894 9.51384 6.62272 9.51384 7.70651C9.3088 7.71383 9.09643 7.72115 8.89139 7.72115C8.08588 7.71383 7.27304 7.71383 6.46021 7.70651Z" fill="#E7E8EB"/>
<path d="M14.1492 2.4272C14.2664 2.61027 14.325 2.80067 14.325 3.02768C14.3176 3.75264 14.3176 4.4776 14.325 5.20257C14.325 5.27579 14.3469 5.3417 14.3542 5.41493C14.3542 6.18383 14.3469 6.95273 14.3469 7.72163C13.9076 7.72163 13.4755 7.71431 13.0361 7.71431C13.0361 5.95682 13.0361 4.19933 13.0288 2.44185C13.0288 2.28807 13.0801 2.25878 13.2192 2.25878C13.5414 2.2661 13.8709 2.20752 14.1492 2.4272Z" fill="#E6E7EA"/>
<path d="M9.52124 7.70687C9.52124 6.62309 9.52124 5.5393 9.52124 4.45552C9.52124 4.20654 9.52124 4.20654 9.76289 4.20654C9.96061 4.20654 10.1657 4.20654 10.3634 4.20654C10.6197 4.20654 10.6197 4.20654 10.6197 4.45552C10.6197 5.5393 10.6197 6.62309 10.6197 7.70687C10.2535 7.70687 9.88738 7.70687 9.52124 7.70687Z" fill="#B2B3B6"/>
<path d="M15.2329 13.4548C14.984 13.4548 14.757 13.2425 14.7643 13.0009C14.7643 12.7301 14.9693 12.5324 15.2329 12.5251C15.4744 12.5178 15.6941 12.7374 15.6941 12.9936C15.6941 13.2425 15.4818 13.4548 15.2329 13.4548Z" fill="#4D3D65"/>
</svg>
