<svg width="9" height="9" viewBox="0 0 9 9" fill="none" xmlns="http://www.w3.org/2000/svg">
<g clip-path="url(#clip0_86929_17003)">
<path fill-rule="evenodd" clip-rule="evenodd" d="M7.5 3H5V0.5C5 0.224 4.776 0 4.5 0H3.5C3.224 0 3 0.224 3 0.5V3H0.5C0.224 3 0 3.224 0 3.5V4.5C0 4.776 0.224 5 0.5 5H3V7.5C3 7.776 3.224 8 3.5 8H4.5C4.776 8 5 7.776 5 7.5V5H7.5C7.776 5 8 4.776 8 4.5V3.5C8 3.224 7.776 3 7.5 3Z" fill="white"/>
</g>
<defs>
<clipPath id="clip0_86929_17003">
<path d="M0 0H9V5C9 7.20914 7.20914 9 5 9H4C1.79086 9 0 7.20914 0 5V0Z" fill="white"/>
</clipPath>
</defs>
</svg>
