<svg width="53" height="50" viewBox="0 0 53 50" fill="none" xmlns="http://www.w3.org/2000/svg">
<rect width="52.5613" height="50" rx="5" fill="#5C68D7"/>
<path d="M8.15303 19.2416C8.16007 18.6665 8.64966 18.2161 9.22341 18.2569L42.9035 20.6545C43.4294 20.6919 43.8361 21.1312 43.833 21.6584L43.7877 29.4399C43.7846 29.9753 43.3604 30.413 42.8254 30.4329L9.0505 31.6893C8.47901 31.7105 8.00587 31.249 8.01288 30.6771L8.15303 19.2416Z" fill="white"/>
<path d="M16.8516 26.06L17.6916 23.54L18.5316 26.06H16.8516ZM14.0916 29H15.8916L16.3716 27.56H19.0116L19.4916 29H21.2916L18.5916 21.44H16.7916L14.0916 29ZM21.7497 29H23.4897V25.22L25.2297 29H26.3097L28.0497 25.22V29H29.7897V21.44H28.2297L25.7697 26.78L23.3097 21.44H21.7497V29ZM31.0302 29H36.1902V27.32H32.7702V21.44H31.0302V29Z" fill="black"/>
</svg>
