<svg width="27" height="26" viewBox="0 0 27 26" fill="none" xmlns="http://www.w3.org/2000/svg">
<rect x="0.499756" width="26" height="26" rx="13" fill="#333333"/>
<path fill-rule="evenodd" clip-rule="evenodd" d="M10.7816 16.7267C10.9751 16.9113 11.2326 17.0135 11.5 17.0118C11.7673 17.0101 12.0236 16.9047 12.2146 16.7177L17.4866 11.5367C17.6278 11.3994 17.7402 11.2355 17.8174 11.0543C17.8945 10.8732 17.9348 10.6785 17.936 10.4817C17.9371 10.2848 17.899 10.0897 17.8239 9.90768C17.7488 9.72569 17.6382 9.56047 17.4986 9.42165C17.3601 9.28194 17.1949 9.17151 17.0128 9.09691C16.8308 9.02232 16.6356 8.98508 16.4388 8.98741C16.2421 8.98974 16.0479 9.0316 15.8676 9.11049C15.6874 9.18938 15.5248 9.3037 15.3896 9.44665L11.8456 13.1227C11.8014 13.1695 11.7479 13.2066 11.6886 13.2316C11.6292 13.2567 11.5653 13.2691 11.5009 13.2682C11.4365 13.2672 11.373 13.2529 11.3145 13.2261C11.2559 13.1994 11.2035 13.1607 11.1606 13.1127L10.5736 12.4717C10.4443 12.3262 10.2864 12.209 10.1097 12.1272C9.93314 12.0453 9.74159 12.0007 9.54701 11.996C9.35242 11.9913 9.15894 12.0267 8.9786 12.0999C8.79825 12.1731 8.63489 12.2826 8.49865 12.4217C8.35951 12.56 8.2494 12.7247 8.17479 12.9061C8.10017 13.0875 8.06255 13.2821 8.06413 13.4782C8.06572 13.6744 8.10647 13.8683 8.18401 14.0485C8.26154 14.2287 8.37429 14.3916 8.51565 14.5277L10.7816 16.7267Z" fill="#EEEEEE"/>
</svg>
