<svg width="9" height="9" viewBox="0 0 9 9" fill="none" xmlns="http://www.w3.org/2000/svg">
<path fill-rule="evenodd" clip-rule="evenodd" d="M8.3025 0.824008L7.62245 0.141538C7.43489 -0.0471793 7.12998 -0.0471793 6.94241 0.141538L4.22176 2.8719L1.50112 0.141538C1.31355 -0.0471793 1.00912 -0.0471793 0.821076 0.141538L0.141034 0.824008C-0.0470114 1.01224 -0.0470114 1.31776 0.141034 1.50648L2.86168 4.23684L0.141034 6.96721C-0.0470114 7.15544 -0.0470114 7.46096 0.141034 7.64968L0.821076 8.33215C1.00864 8.52086 1.31307 8.52086 1.50112 8.33215L4.22176 5.60178L6.94241 8.33215C7.12998 8.52086 7.43441 8.52086 7.62245 8.33215L8.3025 7.64968C8.49054 7.46144 8.49054 7.15544 8.3025 6.96721L5.58185 4.23684L8.3025 1.50648C8.49054 1.31824 8.49054 1.01273 8.3025 0.824008Z" fill="#24272A"/>
</svg>
