<svg width="43" height="40" viewBox="0 0 43 40" fill="none" xmlns="http://www.w3.org/2000/svg">
<rect width="42.049" height="40" rx="3" fill="#F7F7F7"/>
<path fill-rule="evenodd" clip-rule="evenodd" d="M25.0833 18.8335H22.1666V15.9168C22.1666 15.5948 21.9053 15.3335 21.5833 15.3335H20.4166C20.0946 15.3335 19.8333 15.5948 19.8333 15.9168V18.8335H16.9166C16.5946 18.8335 16.3333 19.0948 16.3333 19.4168V20.5835C16.3333 20.9055 16.5946 21.1668 16.9166 21.1668H19.8333V24.0835C19.8333 24.4055 20.0946 24.6668 20.4166 24.6668H21.5833C21.9053 24.6668 22.1666 24.4055 22.1666 24.0835V21.1668H25.0833C25.4053 21.1668 25.6666 20.9055 25.6666 20.5835V19.4168C25.6666 19.0948 25.4053 18.8335 25.0833 18.8335Z" fill="#747678"/>
</svg>
