<svg width="22" height="21" viewBox="0 0 22 21" fill="none" xmlns="http://www.w3.org/2000/svg">
<path d="M4.13979 20.4508C4.20391 20.4416 4.26804 20.4416 4.32301 20.4325C4.4421 20.4325 4.57035 20.4416 4.68944 20.4416C9.05914 20.4416 13.4197 20.4416 17.7894 20.4416C17.881 20.4416 17.9726 20.4325 18.0642 20.4325C18.1283 20.4325 18.1925 20.4416 18.2474 20.4416C18.3207 20.4508 18.4123 20.4783 18.4764 20.4599C18.6597 20.405 18.8429 20.3317 19.0169 20.2584C19.0719 20.2309 19.1085 20.1668 19.1635 20.121C19.191 20.121 19.2093 20.121 19.2368 20.121C19.4566 20.066 19.6582 19.9836 19.759 19.7637C19.7956 19.7271 19.8414 19.6996 19.8689 19.6629C20.0063 19.4981 20.1345 19.3423 20.272 19.1774C20.3452 19.0858 20.4185 18.9942 20.501 18.9026C20.501 18.8934 20.5101 18.8751 20.5101 18.866C20.8491 18.6095 20.9865 18.2339 21.1239 17.8583C21.2338 17.5468 21.3163 17.2262 21.3713 16.8964C21.4171 16.6216 21.4079 16.3376 21.4171 16.0536C21.4171 15.8887 21.4171 15.7146 21.4171 15.5497C21.472 15.2749 21.4262 15.0093 21.3713 14.7253C21.2796 14.3039 21.1697 13.8916 20.9865 13.4977C20.7392 12.9756 20.4552 12.49 19.9788 12.1511C19.9422 12.087 19.9055 12.0137 19.8597 11.9587C19.704 11.7847 19.5391 11.6198 19.3742 11.4457C19.3742 11.1251 19.3742 10.8045 19.3742 10.4838C19.3742 7.69894 19.3742 4.91406 19.3742 2.13834C19.3559 1.86351 19.2826 1.61617 19.0169 1.47876C18.9711 1.43295 18.9253 1.38715 18.8795 1.34135C18.852 1.29554 18.8429 1.23142 18.8062 1.20393C18.5864 1.02988 18.3665 0.846664 18.1283 0.709251C17.936 0.608483 17.7069 0.553518 17.4871 0.516875C17.0474 0.452749 16.6901 0.663447 16.3511 0.910789C16.1679 1.0482 16.0213 1.03904 15.8381 0.892468C15.5267 0.635965 15.1786 0.507714 14.7663 0.507714C14.3816 0.507714 14.0701 0.663448 13.7953 0.901628C13.6029 1.06652 13.4105 1.03904 13.2365 0.883307C12.7418 0.443588 11.9448 0.324498 11.2761 0.864985C11.0562 1.0482 10.9005 1.02072 10.6806 0.864985C10.1035 0.434427 9.37061 0.342819 8.70187 0.864985C8.40872 1.09401 8.37208 1.07568 8.06977 0.846664C7.58425 0.489392 7.06209 0.388623 6.50328 0.645126C6.32922 0.718412 6.18265 0.846664 6.02691 0.947432C5.8895 1.03904 5.77041 1.03904 5.62384 0.947432C5.40398 0.80086 5.17496 0.654287 4.91846 0.571839C4.39629 0.406945 3.92909 0.553518 3.51686 0.892468C3.3428 1.03904 3.18707 1.05736 3.01301 0.910789C2.94889 0.855824 2.8756 0.81002 2.81147 0.764216C2.37176 0.489392 1.91372 0.425267 1.41903 0.617643C0.860223 0.828342 0.466309 1.46044 0.466309 2.00092C0.475469 6.58132 0.466309 11.1617 0.48463 15.7421C0.48463 16.2368 0.631203 16.7315 0.759454 17.2079C0.933509 17.8583 1.31826 18.3988 1.7305 18.9209C1.90455 19.1408 2.13357 19.324 2.34427 19.5255C2.43588 19.6171 2.52749 19.6996 2.62826 19.7912C2.71987 19.8553 2.81147 19.9195 2.90308 19.9836C2.9214 19.9836 2.93056 19.9836 2.94889 19.9927C2.99469 20.0385 3.04965 20.0752 3.09546 20.121C3.12294 20.121 3.15042 20.121 3.17791 20.1301C3.20539 20.2309 3.23287 20.3134 3.36112 20.2218C3.40693 20.2401 3.45273 20.2492 3.49853 20.2676C3.53518 20.295 3.57182 20.3225 3.5993 20.35C3.62678 20.35 3.65427 20.35 3.67259 20.35C3.81 20.4874 3.95657 20.5515 4.13979 20.4508Z" fill="#F6F6F6"/>
<path d="M2.35334 19.5256C2.1518 19.324 1.92278 19.1408 1.73957 18.9209C1.32733 18.3988 0.942577 17.8583 0.768522 17.2079C0.640271 16.7315 0.493698 16.2277 0.493698 15.7421C0.475376 11.1617 0.484537 6.58135 0.475376 2.00094C0.466215 1.46046 0.86013 0.828362 1.40978 0.617664C1.90446 0.425287 2.3625 0.489412 2.80222 0.764236C2.87551 0.81004 2.93963 0.855844 3.00376 0.910809C3.17781 1.05738 3.33355 1.03906 3.5076 0.892488C3.91984 0.553538 4.38704 0.397804 4.9092 0.57186C5.15655 0.654307 5.38557 0.80088 5.61459 0.947452C5.76116 1.03906 5.88025 1.03906 6.01766 0.947452C6.17339 0.846684 6.32913 0.727593 6.49402 0.645146C7.06199 0.388644 7.58416 0.489412 8.06052 0.846684C8.36283 1.06654 8.39947 1.09403 8.69262 0.865005C9.37051 0.34284 10.0942 0.434448 10.6713 0.865005C10.8912 1.0299 11.0469 1.04822 11.2668 0.865005C11.9355 0.324518 12.7325 0.443608 13.2364 0.883327C13.4013 1.0299 13.5936 1.06654 13.7952 0.901648C14.0792 0.672628 14.3815 0.507734 14.7662 0.507734C15.1785 0.507734 15.5266 0.635985 15.838 0.892488C16.0121 1.03906 16.1678 1.04822 16.351 0.910809C16.69 0.663468 17.0473 0.452769 17.487 0.516895C17.7068 0.553538 17.9359 0.599342 18.1282 0.709272C18.3756 0.837523 18.5863 1.0299 18.8061 1.20395C18.8428 1.23144 18.8519 1.29556 18.8794 1.34137C18.8519 1.41465 18.8061 1.48794 18.8153 1.56123C18.8245 1.7078 18.8703 1.85437 18.8794 2.01011C18.8886 2.15668 18.8794 2.30325 18.8794 2.44066C18.8794 5.28051 18.8794 8.12036 18.8794 10.9602C18.8794 11.2534 19.0901 11.4641 19.3649 11.4457C19.5298 11.6106 19.6947 11.7847 19.8505 11.9587C19.8963 12.0137 19.9329 12.087 19.9696 12.1511C19.9787 12.2061 19.9787 12.261 19.997 12.2977C20.1619 12.6183 20.336 12.9298 20.5009 13.2504C20.5742 13.3878 20.6383 13.5252 20.7024 13.6626C20.7024 13.6901 20.7116 13.7176 20.7116 13.7451C20.7574 13.9191 20.794 14.084 20.8398 14.2581C20.8398 14.2856 20.8398 14.3131 20.8398 14.3405C20.8765 14.5329 20.9131 14.7161 20.9589 14.9085C20.9498 15.2108 20.9406 15.5131 20.9314 15.8154C20.904 15.9986 20.8673 16.1819 20.8398 16.3742C20.8398 16.4017 20.8398 16.4292 20.8398 16.4567C20.8032 16.6216 20.7666 16.7956 20.7299 16.9605C20.7299 16.988 20.7299 17.0155 20.7299 17.043C20.6933 17.0888 20.6383 17.1346 20.6108 17.1896C20.5375 17.3636 20.4826 17.5377 20.4001 17.7026C20.2535 17.9957 20.0886 18.2797 19.9238 18.5637C19.9238 18.5728 19.9146 18.5912 19.9146 18.6003C19.823 18.7102 19.7314 18.811 19.6398 18.9209C19.6123 18.9484 19.5756 18.9851 19.5482 19.0126C19.5024 19.0492 19.4657 19.0767 19.4199 19.1133C19.3558 19.1683 19.2917 19.2324 19.2367 19.2874C19.1909 19.3332 19.1359 19.3698 19.0901 19.4156C19.0626 19.4248 19.0352 19.4248 19.0168 19.4339C18.797 19.5439 18.568 19.6446 18.3481 19.7546C18.284 19.7821 18.229 19.837 18.174 19.8737C18.1374 19.8737 18.0916 19.8737 18.055 19.8737C17.8901 19.9103 17.716 19.9378 17.5511 19.9744C13.0348 19.9744 8.5094 19.9744 3.99312 19.9744C3.78243 19.9378 3.56257 19.9103 3.35187 19.8737C3.31522 19.8737 3.26942 19.8737 3.23278 19.8645C2.94879 19.7179 2.66481 19.5805 2.38082 19.4339C2.37166 19.4798 2.3625 19.5072 2.35334 19.5256ZM10.6713 18.8293C12.8608 18.8293 15.0502 18.8293 17.2396 18.8293C17.6977 18.8293 18.1099 18.6919 18.4764 18.4171C19.3375 17.785 19.6764 16.8689 19.8047 15.8521C19.8871 15.1742 19.8138 14.5054 19.5848 13.8733C19.3008 13.0947 18.8703 12.4168 18.0641 12.087C17.7801 11.9679 17.7435 11.8213 17.7435 11.5648C17.7526 8.41351 17.7435 5.26219 17.7526 2.10171C17.7526 1.9185 17.716 1.73528 17.5419 1.68948C17.4137 1.65283 17.2396 1.7078 17.1206 1.77192C16.864 1.92766 16.6167 2.11087 16.3785 2.30325C16.1861 2.46815 16.0304 2.45898 15.838 2.30325C15.5815 2.10171 15.3067 1.9185 15.041 1.72612C14.8945 1.61619 14.7479 1.61619 14.6013 1.72612C14.299 1.94598 13.9876 2.15668 13.6853 2.37654C13.5753 2.45898 13.4929 2.45898 13.3738 2.37654C13.0898 2.16584 12.7875 1.9643 12.5035 1.7536C12.3386 1.63451 12.1829 1.61619 11.9997 1.74444C11.7065 1.95514 11.3951 2.15668 11.1019 2.37654C10.9828 2.46815 10.9004 2.45898 10.7813 2.36738C10.4881 2.14752 10.1858 1.94598 9.88352 1.73528C9.72779 1.62535 9.58121 1.62535 9.42548 1.74444C9.13233 1.9643 8.83003 2.16584 8.53688 2.37654C8.42695 2.45898 8.3445 2.46815 8.23458 2.37654C7.93227 2.14752 7.61164 1.93682 7.30017 1.72612C7.1536 1.62535 7.02535 1.62535 6.87878 1.72612C6.57647 1.94598 6.265 2.14752 5.9627 2.37654C5.84361 2.46815 5.752 2.45898 5.63291 2.37654C5.35808 2.16584 5.0741 1.98262 4.79927 1.77192C4.59774 1.61619 4.41452 1.62535 4.22214 1.77192C3.93816 1.98262 3.66334 2.19332 3.37019 2.37654C3.30606 2.42234 3.15949 2.42234 3.09537 2.37654C2.81138 2.19332 2.53656 1.98262 2.25257 1.78109C2.11516 1.68032 1.96859 1.58871 1.79453 1.68948C1.62964 1.78109 1.60215 1.93682 1.60215 2.12004C1.60215 6.56302 1.61132 11.006 1.60215 15.449C1.60215 16.1452 1.74873 16.7956 2.07852 17.4003C2.56404 18.298 3.26942 18.8385 4.35956 18.8293C6.46654 18.811 8.56436 18.8293 10.6713 18.8293Z" fill="#EEEEEE"/>
<path d="M20.7483 17.0428C20.7483 17.0154 20.7483 16.9879 20.7483 16.9604C20.8948 16.8138 20.9315 16.6489 20.8582 16.4566C20.8582 16.4291 20.8582 16.4016 20.8582 16.3741C21.0964 16.2275 20.9681 16.0168 20.9498 15.8153C20.959 15.513 20.9681 15.2107 20.9773 14.9084C20.959 14.716 21.0872 14.4961 20.8582 14.3404C20.8582 14.3129 20.8582 14.2854 20.8582 14.258C20.9406 14.0564 20.904 13.8824 20.7299 13.745C20.7299 13.7175 20.7208 13.69 20.7208 13.6625C20.6658 13.4426 20.6108 13.2228 20.565 13.0029C20.7116 13.2045 20.8582 13.4152 20.9406 13.6533C21.1055 14.0839 21.2613 14.5053 21.2796 14.9725C21.2887 15.1649 21.3712 15.3481 21.417 15.5313C21.417 15.6962 21.417 15.8703 21.417 16.0352C21.3987 16.081 21.3712 16.1268 21.362 16.1726C21.2979 16.5115 21.2429 16.8505 21.1788 17.1986C21.078 17.7482 20.849 18.2337 20.5467 18.7009C20.5192 18.7376 20.5101 18.7926 20.5009 18.8475C20.5009 18.8567 20.4918 18.875 20.4918 18.8842C20.4185 18.9758 20.3452 19.0674 20.2627 19.159C20.0795 19.3147 19.8871 19.4705 19.7131 19.6353C19.649 19.6995 19.594 19.7728 19.5299 19.846C19.5207 19.846 19.5024 19.8552 19.4932 19.8552C19.4474 19.8919 19.3925 19.9377 19.3467 19.9743C19.31 20.0201 19.2734 20.0659 19.2367 20.1117C19.2092 20.1117 19.1909 20.1117 19.1634 20.1117C19.136 20.1117 19.0993 20.1117 19.0718 20.1117C19.0443 20.13 19.0077 20.1484 18.9802 20.1667C18.852 20.1942 18.6688 20.0751 18.6138 20.3041C18.5222 20.3224 18.4306 20.3316 18.339 20.3499C18.2199 20.2766 18.1191 20.2766 18.0641 20.4323C17.9725 20.4323 17.8809 20.4415 17.7893 20.4415C13.4196 20.4415 9.05907 20.4415 4.68937 20.4415C4.57028 20.4415 4.44203 20.4323 4.32294 20.4323C4.23133 20.2583 4.08476 20.3132 3.93819 20.3224C3.9107 20.3224 3.88322 20.3224 3.85574 20.3224C3.59008 20.1942 3.32441 20.0751 3.00378 19.9193C3.13204 19.901 3.17784 19.8919 3.2328 19.8827C3.26945 19.8827 3.31525 19.8827 3.35189 19.8919C3.54427 20.0934 3.76413 20.0567 3.99315 19.9926C8.50943 19.9926 13.0349 19.9926 17.5511 19.9926C17.7435 20.0842 17.9176 20.0567 18.055 19.8919C18.0916 19.8919 18.1374 19.8919 18.1741 19.8919C18.3481 19.8277 18.5405 19.7728 18.7054 19.6903C18.8245 19.6353 18.9161 19.5346 19.0169 19.4521C19.0443 19.443 19.0718 19.443 19.0902 19.4338C19.136 19.388 19.1909 19.3514 19.2367 19.3056C19.3008 19.2506 19.365 19.1865 19.4199 19.1315C19.4657 19.0949 19.5024 19.0674 19.5482 19.0307C19.5757 19.0033 19.6123 18.9666 19.6398 18.9391C19.7314 18.8292 19.823 18.7284 19.9146 18.6185C19.9146 18.6093 19.9238 18.591 19.9238 18.5819C19.9513 18.5727 19.9971 18.5727 20.0062 18.5544C20.1803 18.2796 20.3635 18.0139 20.5101 17.7299C20.6292 17.5009 20.6841 17.2719 20.7483 17.0428Z" fill="#A1A1A1"/>
<path d="M19.3834 11.4457C19.1086 11.4548 18.8979 11.2441 18.8979 10.9601C18.8979 8.1203 18.8979 5.28045 18.8979 2.4406C18.8979 2.29403 18.907 2.14746 18.8979 2.01005C18.8887 1.86347 18.8429 1.7169 18.8337 1.56117C18.8337 1.48788 18.8795 1.4146 18.8979 1.34131C18.9437 1.38711 18.9895 1.43292 19.0353 1.47872C19.1544 1.69858 19.2735 1.91844 19.3925 2.1383C19.3925 4.92318 19.3925 7.70807 19.3925 10.4838C19.3834 10.8044 19.3834 11.125 19.3834 11.4457Z" fill="#A6A6A6"/>
<path d="M21.4263 15.5405C21.3805 15.3573 21.298 15.1649 21.2889 14.9817C21.2705 14.5145 21.1148 14.0839 20.9499 13.6625C20.8583 13.4335 20.7209 13.2136 20.5743 13.0121C20.6293 13.232 20.6843 13.4518 20.7301 13.6717C20.6659 13.5343 20.5926 13.3969 20.5285 13.2595C20.3636 12.9388 20.1896 12.6274 20.0247 12.3067C20.0064 12.2609 20.0064 12.206 19.9972 12.1602C20.4736 12.5083 20.7575 12.9938 21.0049 13.5068C21.1881 13.9007 21.298 14.3038 21.3896 14.7343C21.4354 15 21.4721 15.2657 21.4263 15.5405Z" fill="#C7C7C7"/>
<path d="M20.5101 18.8568C20.5285 18.811 20.5285 18.756 20.5559 18.7102C20.8491 18.243 21.0873 17.7575 21.188 17.2079C21.2522 16.8689 21.3071 16.53 21.3712 16.1818C21.3804 16.136 21.4079 16.0902 21.4262 16.0444C21.4079 16.3284 21.4262 16.6124 21.3804 16.8872C21.3254 17.2079 21.243 17.5376 21.1331 17.8491C20.9865 18.2155 20.8491 18.6003 20.5101 18.8568Z" fill="#C7C7C7"/>
<path d="M3.23284 19.8827C3.17787 19.8919 3.13207 19.901 3.00382 19.9193C3.32444 20.0751 3.59011 20.1942 3.85577 20.3224C3.79164 20.3316 3.73668 20.3407 3.67255 20.3499C3.64507 20.3499 3.61759 20.3499 3.59927 20.3499C3.56262 20.3224 3.52598 20.2949 3.4985 20.2675C3.4527 20.2491 3.40689 20.24 3.36109 20.2217C3.29696 20.1942 3.242 20.1575 3.17787 20.13C3.15039 20.13 3.12291 20.13 3.09542 20.1209C3.04962 20.0751 2.99466 20.0384 2.94885 19.9926C2.93053 19.9926 2.92137 19.9835 2.90305 19.9835C2.81144 19.9193 2.71983 19.8552 2.62822 19.7911C2.53662 19.6995 2.44501 19.617 2.34424 19.5254C2.3534 19.498 2.37172 19.4705 2.38088 19.4521C2.67403 19.5987 2.94885 19.7361 3.23284 19.8827Z" fill="#B9B9B9"/>
<path d="M19.5299 19.855C19.594 19.7817 19.649 19.7085 19.7131 19.6443C19.8963 19.4794 20.0796 19.3237 20.2628 19.168C20.1345 19.3329 19.9971 19.4978 19.8597 19.6535C19.8231 19.6901 19.7864 19.7268 19.7498 19.7543C19.6856 19.7909 19.6124 19.8184 19.5299 19.855Z" fill="#B9B9B9"/>
<path d="M18.339 20.35C18.4307 20.3317 18.5223 20.3225 18.6139 20.3042C18.733 20.2584 18.8612 20.2126 18.9803 20.1668C19.0078 20.1485 19.0444 20.1301 19.0719 20.1118C19.0994 20.1118 19.136 20.1118 19.1635 20.1118C19.1177 20.1576 19.0811 20.2309 19.0169 20.2492C18.8429 20.3225 18.6597 20.3958 18.4765 20.4508C18.4032 20.4691 18.3207 20.4416 18.2474 20.4324C18.2749 20.4141 18.3116 20.3866 18.339 20.35Z" fill="#EEEEEE"/>
<path d="M19.3834 2.13858C19.2643 1.91872 19.1452 1.69886 19.0261 1.479C19.2918 1.61642 19.3651 1.86376 19.3834 2.13858Z" fill="#EEEEEE"/>
<path d="M19.53 19.8553C19.6032 19.8278 19.6857 19.7912 19.759 19.7637C19.6491 19.9835 19.4475 20.066 19.2368 20.1209C19.2735 20.0751 19.3101 20.0293 19.3467 19.9835C19.3926 19.9469 19.4475 19.9011 19.4933 19.8644C19.5116 19.8553 19.5208 19.8553 19.53 19.8553Z" fill="#EEEEEE"/>
<path d="M3.68176 20.3497C3.74589 20.3406 3.80085 20.3314 3.86498 20.3223C3.89246 20.3223 3.91994 20.3223 3.94743 20.3223C4.01155 20.3681 4.07568 20.4047 4.1398 20.4505C3.95659 20.5513 3.81001 20.4872 3.68176 20.3497Z" fill="#EEEEEE"/>
<path d="M4.13976 20.4506C4.07564 20.4048 4.01151 20.3681 3.94739 20.3223C4.0848 20.3132 4.24053 20.2674 4.33214 20.4323C4.25885 20.4414 4.20389 20.4414 4.13976 20.4506Z" fill="#B9B9B9"/>
<path d="M18.339 20.3502C18.3116 20.3777 18.2749 20.4144 18.2474 20.4418C18.1833 20.4418 18.1192 20.4327 18.0642 20.4327C18.1192 20.277 18.2199 20.277 18.339 20.3502Z" fill="#B9B9B9"/>
<path d="M20.272 19.1684C20.3453 19.0768 20.4185 18.9852 20.501 18.8936C20.4277 18.9852 20.3453 19.0768 20.272 19.1684Z" fill="#C7C7C7"/>
<path d="M2.6283 19.791C2.7199 19.8551 2.81151 19.9193 2.90312 19.9834C2.81151 19.9193 2.7199 19.8551 2.6283 19.791Z" fill="#EEEEEE"/>
<path d="M3.17786 20.1211C3.24198 20.1486 3.29695 20.1852 3.36107 20.2127C3.23282 20.3043 3.19618 20.231 3.17786 20.1211Z" fill="#EEEEEE"/>
<path d="M2.94885 19.9927C2.99466 20.0385 3.04962 20.0751 3.09543 20.1209C3.04962 20.0751 2.99466 20.0385 2.94885 19.9927Z" fill="#EEEEEE"/>
<path d="M3.49854 20.2583C3.53518 20.2858 3.57182 20.3133 3.5993 20.3407C3.56266 20.3224 3.52602 20.2949 3.49854 20.2583Z" fill="#EEEEEE"/>
<path d="M10.6714 18.8293C8.57353 18.8293 6.47571 18.811 4.37788 18.8385C3.28775 18.8568 2.58237 18.3072 2.09684 17.4094C1.76706 16.8048 1.62048 16.1544 1.62048 15.4582C1.62048 11.0152 1.62048 6.57218 1.62048 2.12919C1.62048 1.94598 1.64797 1.79024 1.81286 1.69864C1.98692 1.59787 2.13349 1.68948 2.2709 1.79024C2.54572 1.99178 2.82055 2.20248 3.11369 2.3857C3.17782 2.4315 3.32439 2.4315 3.38852 2.3857C3.68166 2.19332 3.96565 1.99178 4.24047 1.78108C4.44201 1.63451 4.62523 1.62535 4.8176 1.78108C5.09243 1.99178 5.37641 2.175 5.65124 2.3857C5.77033 2.4773 5.86193 2.4773 5.98102 2.3857C6.28333 2.16584 6.58564 1.95514 6.8971 1.73528C7.04368 1.63451 7.17193 1.63451 7.3185 1.73528C7.62997 1.95514 7.9506 2.16584 8.2529 2.3857C8.36283 2.46814 8.44528 2.45898 8.55521 2.3857C8.84836 2.16584 9.15066 1.9643 9.44381 1.7536C9.59954 1.63451 9.74611 1.63451 9.90185 1.74444C10.2042 1.95514 10.5065 2.15668 10.7996 2.37654C10.9187 2.45898 11.0011 2.4773 11.1202 2.3857C11.4134 2.16584 11.7248 1.9643 12.018 1.7536C12.192 1.62535 12.3478 1.64367 12.5218 1.76276C12.8058 1.97346 13.1081 2.175 13.3921 2.3857C13.502 2.46814 13.5936 2.46814 13.7036 2.3857C14.0059 2.16584 14.3174 1.95514 14.6197 1.73528C14.7662 1.62535 14.9128 1.62535 15.0594 1.73528C15.325 1.92766 15.5999 2.10171 15.8564 2.31241C16.0487 2.46814 16.2045 2.4773 16.3969 2.31241C16.6259 2.12003 16.8824 1.93682 17.1389 1.78108C17.258 1.7078 17.432 1.66199 17.5603 1.69864C17.7343 1.74444 17.771 1.92766 17.771 2.11087C17.771 5.26219 17.771 8.4135 17.7618 11.574C17.7618 11.8305 17.7893 11.9862 18.0824 12.0961C18.8886 12.4168 19.3191 13.1038 19.6031 13.8825C19.8322 14.5238 19.9054 15.1925 19.823 15.8612C19.6947 16.8689 19.3558 17.785 18.4947 18.4263C18.1282 18.6919 17.716 18.8385 17.258 18.8385C15.0502 18.8293 12.8608 18.8293 10.6714 18.8293ZM3.12285 17.6567C3.18698 17.7117 3.25111 17.7758 3.31523 17.8308C3.39768 17.8858 3.48929 17.9407 3.57173 17.9957C3.6725 18.0415 3.77327 18.0873 3.87404 18.1331C4.12138 18.1331 4.35956 18.1331 4.6069 18.1331C4.75348 18.1331 4.90005 18.1423 5.03746 18.1423C8.95829 18.1423 12.8791 18.1423 16.7999 18.1423C17.0198 18.1423 17.2396 18.1423 17.4595 18.1423C17.542 18.1148 17.6244 18.0873 17.7069 18.0598C17.7527 18.0507 17.7893 18.0323 17.8351 18.0232C17.8809 17.9957 17.9359 17.9591 17.9817 17.9316C18.0458 17.8858 18.1008 17.8491 18.1649 17.8033C18.1924 17.7758 18.2199 17.7484 18.2473 17.7209C18.284 17.6842 18.3115 17.6567 18.3481 17.6201C18.3847 17.5743 18.4306 17.5285 18.4672 17.4827C18.5771 17.2995 18.6779 17.1254 18.7878 16.9422C18.8153 16.8872 18.8428 16.8414 18.8703 16.7865C18.8886 16.7315 18.8978 16.6765 18.9161 16.6216C18.9436 16.5575 18.971 16.4933 18.9985 16.4292C19.0077 16.3742 19.0168 16.3101 19.026 16.2551C19.0535 16.1269 19.081 15.9986 19.1085 15.8704C19.1085 15.8246 19.1176 15.7788 19.1176 15.733C19.1176 15.504 19.1176 15.2749 19.1176 15.0551C19.1176 15.0093 19.1085 14.9635 19.1085 14.9177C19.081 14.7986 19.0535 14.6703 19.026 14.5512C19.0168 14.4963 19.0077 14.4321 18.9985 14.3772C18.971 14.3131 18.9436 14.2398 18.9161 14.1756C18.8978 14.1207 18.8886 14.0657 18.8703 14.0016C18.8519 13.9649 18.8336 13.9375 18.8061 13.9008C18.7787 13.8367 18.7603 13.7817 18.7329 13.7176C18.7145 13.6901 18.6871 13.6535 18.6687 13.626C18.6596 13.5985 18.6504 13.571 18.6321 13.5435C18.5954 13.4977 18.568 13.4428 18.5313 13.397C18.3573 13.2229 18.1832 13.0397 18.0092 12.8657C17.9725 12.8473 17.945 12.829 17.9084 12.8107C17.8351 12.7832 17.7618 12.7466 17.6885 12.7191C17.6244 12.6916 17.5511 12.6641 17.487 12.6458C17.432 12.6366 17.3679 12.6366 17.3129 12.6275C17.1022 12.545 17.0015 12.3984 17.0381 12.1603C17.0473 12.0778 17.0381 11.9862 17.029 11.8946C17.029 11.7938 17.0381 11.6931 17.0381 11.6015C17.0289 8.68833 17.0289 5.77519 17.0198 2.86206C17.0106 2.82541 17.0015 2.78877 16.9923 2.74297C16.9465 2.77961 16.8915 2.82541 16.8457 2.86206C16.8183 2.88038 16.7908 2.8987 16.7724 2.91702C16.69 2.97199 16.6076 3.02695 16.5251 3.08192C16.4701 3.11856 16.4152 3.1552 16.3602 3.19185C16.3052 3.22849 16.2503 3.26513 16.2045 3.30178C16.1404 3.30178 16.0762 3.30178 16.0121 3.30178C15.9297 3.24681 15.8472 3.20101 15.7648 3.14604C15.7373 3.12772 15.7098 3.1094 15.6823 3.09108C15.5999 3.03611 15.5174 2.98115 15.4441 2.91702C15.4166 2.8987 15.3892 2.88038 15.3708 2.8529C15.2884 2.79793 15.206 2.74297 15.1235 2.688C15.096 2.66968 15.0685 2.6422 15.0502 2.62388C14.9861 2.49563 14.867 2.40402 14.7388 2.49563C14.3632 2.75213 14.0059 3.03611 13.6395 3.30178C13.5753 3.30178 13.5112 3.30178 13.4471 3.30178C13.3371 3.22849 13.2272 3.1552 13.1173 3.09108C13.1081 3.08192 13.099 3.08192 13.0806 3.08192C12.8608 2.90786 12.6318 2.74297 12.4211 2.56891C12.2562 2.42234 12.1371 2.45898 12.0363 2.63304C12.0272 2.63304 12.0088 2.6422 11.9997 2.65136C11.679 2.87122 11.3676 3.09108 11.0469 3.31094C10.9828 3.31094 10.9187 3.31094 10.8637 3.31094C10.763 3.24681 10.653 3.17352 10.5523 3.1094C10.5431 3.10024 10.5339 3.10024 10.5156 3.10024C10.424 3.02695 10.3232 2.95367 10.2316 2.88038C10.2225 2.87122 10.2133 2.87122 10.195 2.86206C10.0484 2.74297 9.90185 2.61472 9.74611 2.49563C9.70947 2.46814 9.62702 2.46814 9.59954 2.49563C9.44381 2.61472 9.29724 2.73381 9.15066 2.86206C9.1415 2.86206 9.12318 2.87122 9.11402 2.87122C9.02241 2.9445 8.92164 3.01779 8.83003 3.09108C8.82087 3.09108 8.80255 3.10024 8.79339 3.10024C8.69262 3.16436 8.58269 3.22849 8.48192 3.30178C8.4178 3.30178 8.35367 3.30178 8.29871 3.30178C7.97808 3.08192 7.65745 2.86206 7.34598 2.6422C7.33682 2.60556 7.32766 2.60556 7.3185 2.59639C7.14445 2.3857 7.07116 2.3857 6.91543 2.59639C6.87878 2.62388 6.84214 2.6422 6.79634 2.66968C6.6406 2.77961 6.49403 2.88038 6.3383 2.99031C6.30165 3.01779 6.26501 3.04527 6.23753 3.07276C6.1276 3.14604 6.01767 3.21933 5.90774 3.28345C5.84361 3.28345 5.77949 3.28345 5.71536 3.28345C5.6604 3.24681 5.61459 3.21017 5.55963 3.17352C5.55047 3.16436 5.54131 3.16436 5.52298 3.16436C5.24816 2.95367 4.97334 2.73381 4.68935 2.52311C4.52446 2.39486 4.39621 2.44066 4.3046 2.61472C4.27712 2.63304 4.24963 2.66052 4.23131 2.67884C4.16719 2.73381 4.0939 2.77961 4.02977 2.83458C3.99313 2.86206 3.95649 2.88038 3.91068 2.90786C3.71831 3.03611 3.52593 3.16436 3.34271 3.29262C3.27859 3.29262 3.21446 3.29262 3.15034 3.29262C3.09537 3.25597 3.04041 3.21933 2.9946 3.18269C2.98544 3.17352 2.97628 3.17352 2.95796 3.17352C2.86635 3.10024 2.76558 3.02695 2.67398 2.95367C2.66481 2.9445 2.65565 2.9445 2.63733 2.9445C2.56405 2.87122 2.49076 2.80709 2.41747 2.73381C2.38999 2.77045 2.36251 2.80709 2.33503 2.84374C2.32587 3.46667 2.3167 4.0896 2.3167 4.7217C2.3167 6.41645 2.3167 8.1112 2.3167 9.80594C2.3167 10.8045 2.3167 11.803 2.32586 12.8015C2.32586 13.4336 2.33503 14.0657 2.33503 14.6886C2.33503 15.11 2.33503 15.5314 2.33503 15.9528C2.36251 16.0444 2.38999 16.1361 2.41747 16.2368C2.42663 16.2826 2.43579 16.3193 2.44496 16.3651C2.49076 16.4842 2.5274 16.5941 2.57321 16.7132C2.60069 16.7956 2.62817 16.8781 2.65565 16.9605C2.70146 17.043 2.75642 17.1346 2.80223 17.217C2.88467 17.3361 2.96712 17.4552 3.04957 17.5743C3.05873 17.5926 3.09537 17.6293 3.12285 17.6567Z" fill="#46474B"/>
<path d="M20.7483 17.043C20.675 17.2628 20.6292 17.501 20.5284 17.7117C20.3819 17.9957 20.1986 18.2614 20.0246 18.5362C20.0154 18.5545 19.9696 18.5545 19.9421 18.5637C20.0979 18.2797 20.2719 17.9957 20.4185 17.7025C20.5009 17.5377 20.5559 17.3544 20.6292 17.1895C20.6567 17.1346 20.7116 17.0888 20.7483 17.043Z" fill="#C7C7C7"/>
<path d="M19.026 19.4434C18.9253 19.5258 18.8336 19.6266 18.7146 19.6815C18.5497 19.764 18.3573 19.819 18.1832 19.8831C18.2382 19.8373 18.2932 19.7915 18.3573 19.7548C18.5863 19.6449 18.8062 19.5441 19.026 19.4434Z" fill="#B9B9B9"/>
<path d="M4.00234 19.9836C3.77332 20.0569 3.5443 20.0844 3.36108 19.8828C3.57178 19.9195 3.78248 19.9561 4.00234 19.9836Z" fill="#B9B9B9"/>
<path d="M20.9589 15.8154C20.9772 16.0078 21.1055 16.2185 20.8673 16.3742C20.8948 16.191 20.9314 15.9986 20.9589 15.8154Z" fill="#C7C7C7"/>
<path d="M20.8673 14.3496C21.0963 14.4962 20.9681 14.7252 20.9864 14.9176C20.9406 14.7252 20.904 14.5328 20.8673 14.3496Z" fill="#C7C7C7"/>
<path d="M20.73 13.7451C20.904 13.8825 20.9407 14.0566 20.8582 14.2581C20.8216 14.0932 20.7758 13.9192 20.73 13.7451Z" fill="#C7C7C7"/>
<path d="M20.8675 16.4565C20.9408 16.6489 20.9041 16.8138 20.7576 16.9604C20.7942 16.7955 20.8309 16.6306 20.8675 16.4565Z" fill="#C7C7C7"/>
<path d="M18.0643 19.8828C17.9177 20.0477 17.7528 20.066 17.5604 19.9836C17.7253 19.9561 17.8994 19.9195 18.0643 19.8828Z" fill="#B9B9B9"/>
<path d="M19.933 18.6094C19.8414 18.7193 19.7498 18.8201 19.6582 18.93C19.7498 18.8201 19.8414 18.7101 19.933 18.6094Z" fill="#C7C7C7"/>
<path d="M19.2551 19.2964C19.2093 19.3422 19.1543 19.3788 19.1085 19.4246C19.1543 19.3788 19.2093 19.3422 19.2551 19.2964Z" fill="#B9B9B9"/>
<path d="M19.5666 19.0215C19.5208 19.0581 19.4842 19.0856 19.4384 19.1223C19.4842 19.0856 19.53 19.049 19.5666 19.0215Z" fill="#C7C7C7"/>
<path d="M18.9802 20.1667C18.8611 20.2125 18.7329 20.2583 18.6138 20.3041C18.6687 20.0842 18.852 20.2033 18.9802 20.1667Z" fill="#B9B9B9"/>
<path d="M19.4934 19.8555C19.4476 19.8921 19.3926 19.9379 19.3468 19.9746C19.3926 19.9379 19.4476 19.9013 19.4934 19.8555Z" fill="#B9B9B9"/>
<path d="M19.072 20.1211C19.0445 20.1394 19.0078 20.1577 18.9803 20.1761C19.0078 20.1577 19.0445 20.1394 19.072 20.1211Z" fill="#B9B9B9"/>
<path d="M16.7817 2.89872C16.8092 2.88039 16.8367 2.86207 16.855 2.84375C16.9099 2.84375 16.9741 2.84375 17.029 2.84375C17.0382 5.75689 17.0382 8.67002 17.0473 11.5832C17.0473 11.6839 17.0382 11.7847 17.0382 11.8763C16.9283 11.8763 16.8275 11.8855 16.7176 11.8855C12.6318 11.8855 8.54613 11.8855 4.46041 11.8946C4.17643 11.8946 3.88328 11.9404 3.60846 11.9954C3.16874 12.087 2.83895 12.3527 2.53664 12.6733C2.48168 12.7283 2.39007 12.7557 2.30762 12.7924C2.30762 11.7939 2.29846 10.7953 2.29846 9.7968C2.29846 8.10205 2.29846 6.4073 2.29846 4.71255C2.29846 4.08962 2.30762 3.46669 2.31678 2.83459C2.41755 2.87123 2.51832 2.89872 2.61909 2.93536C2.62825 2.93536 2.64657 2.94452 2.65573 2.94452C2.74734 3.01781 2.84811 3.09109 2.93972 3.16438C2.94888 3.16438 2.9672 3.17354 2.97636 3.17354C3.03133 3.21018 3.08629 3.24683 3.13209 3.28347C3.19622 3.28347 3.26035 3.28347 3.32447 3.28347C3.56265 3.2285 3.77335 3.12774 3.89244 2.89872C3.92908 2.87123 3.96573 2.85291 4.01153 2.82543C4.07566 2.77046 4.14894 2.72466 4.21307 2.6697C4.24055 2.65137 4.26803 2.62389 4.28636 2.60557C4.50621 2.5048 4.67111 2.60557 4.84516 2.74298C5.0467 2.89872 5.28488 3.01781 5.50474 3.15522C5.5139 3.15522 5.53222 3.16438 5.54139 3.16438C5.59635 3.20102 5.64215 3.23767 5.69712 3.27431C5.76124 3.27431 5.82537 3.27431 5.8895 3.27431C6.07271 3.31095 6.15516 3.21018 6.21928 3.06361C6.25593 3.03613 6.29257 3.00865 6.32005 2.98116C6.47579 2.87123 6.62236 2.77047 6.77809 2.66054C6.81474 2.63305 6.85138 2.61473 6.89718 2.58725C7.0346 2.58725 7.16285 2.58725 7.30026 2.58725C7.30942 2.58725 7.32774 2.59641 7.3369 2.60557C7.34606 2.63305 7.34606 2.6697 7.36438 2.68802C7.62089 2.88039 7.88655 3.07277 8.15221 3.26515C8.1797 3.28347 8.24382 3.26515 8.28963 3.26515C8.35375 3.26515 8.41788 3.26515 8.47284 3.26515C8.65606 3.32011 8.72018 3.20102 8.78431 3.06361C8.79347 3.05445 8.80263 3.05445 8.82095 3.05445C8.91256 2.98116 9.01333 2.90788 9.10494 2.83459C9.1141 2.82543 9.12326 2.82543 9.14158 2.82543C9.26067 2.7613 9.38892 2.70634 9.50801 2.62389C9.6271 2.54145 9.70955 2.54145 9.82864 2.62389C9.93857 2.70634 10.0668 2.7613 10.1951 2.82543C10.2042 2.82543 10.2226 2.83459 10.2317 2.84375C10.3233 2.91704 10.4241 2.99032 10.5157 3.06361C10.5249 3.06361 10.5432 3.07277 10.5523 3.07277C10.6165 3.20102 10.6806 3.32927 10.8638 3.27431C10.9279 3.27431 10.9921 3.27431 11.047 3.27431C11.1112 3.26515 11.1936 3.26515 11.2394 3.2285C11.4501 3.08193 11.6608 2.93536 11.8623 2.77963C11.9173 2.73382 11.9539 2.6697 11.9997 2.61473C12.0089 2.60557 12.0181 2.60557 12.0364 2.59641C12.2104 2.52312 12.357 2.56893 12.4944 2.69718C12.5402 2.74298 12.586 2.77963 12.641 2.80711C12.7876 2.88956 12.9342 2.972 13.0807 3.05445C13.0899 3.05445 13.1082 3.06361 13.1174 3.06361C13.1815 3.21018 13.2639 3.32011 13.4472 3.27431C13.5113 3.27431 13.5754 3.27431 13.6395 3.27431C13.7128 3.24683 13.7953 3.23767 13.8594 3.19186C14.006 3.10025 14.1342 2.972 14.2808 2.88956C14.519 2.75214 14.693 2.44068 15.0411 2.60557C15.0686 2.62389 15.0961 2.65137 15.1144 2.6697C15.1969 2.72466 15.2793 2.77963 15.3618 2.83459C15.3892 2.85291 15.4167 2.87123 15.435 2.89872C15.5175 2.95368 15.5999 3.00865 15.6732 3.07277C15.7007 3.09109 15.7282 3.10941 15.7557 3.12774C15.8381 3.1827 15.9206 3.2285 16.003 3.28347C16.0671 3.28347 16.1313 3.28347 16.1954 3.28347C16.2504 3.24683 16.3053 3.21018 16.3511 3.17354C16.4061 3.1369 16.4611 3.10025 16.516 3.06361C16.6809 3.09109 16.7542 3.02697 16.7817 2.89872ZM9.42556 8.93568C11.0928 8.93568 12.7693 8.93568 14.4365 8.93568C14.7755 8.93568 14.977 8.80743 14.9862 8.58757C14.9953 8.35855 14.7846 8.21198 14.4365 8.21198C11.102 8.21198 7.76746 8.21198 4.43293 8.21198C4.37796 8.21198 4.31384 8.19366 4.27719 8.21198C4.14894 8.29443 3.99321 8.37687 3.93825 8.49597C3.9016 8.56925 3.99321 8.75247 4.08482 8.83491C4.1581 8.9082 4.30468 8.92652 4.42377 8.92652C6.08187 8.94484 7.7583 8.93568 9.42556 8.93568ZM9.04081 10.548C10.5798 10.548 12.128 10.548 13.667 10.548C13.7311 10.548 13.8044 10.5571 13.8686 10.5388C14.0334 10.5022 14.1617 10.4197 14.1709 10.2182C14.18 10.0167 14.1067 9.88841 13.9144 9.85176C13.8227 9.83344 13.722 9.82428 13.6212 9.82428C10.5707 9.82428 7.51096 9.82428 4.46041 9.82428C4.40545 9.82428 4.34132 9.80596 4.30468 9.82428C4.16727 9.90673 4.00237 9.98001 3.92908 10.1083C3.83748 10.2732 3.99321 10.4106 4.13062 10.493C4.19475 10.5388 4.30468 10.5388 4.39629 10.5388C5.9353 10.548 7.48347 10.548 9.04081 10.548ZM9.22403 5.69276C10.8455 5.69276 12.4761 5.69276 14.0976 5.69276C14.1892 5.69276 14.3266 5.69276 14.3724 5.62863C14.4548 5.52787 14.519 5.37213 14.5098 5.25304C14.4915 5.08815 14.3449 4.99654 14.1525 4.99654C12.5494 5.0057 10.9463 4.99654 9.34312 4.99654C7.67585 4.99654 6.01775 4.99654 4.35048 4.99654C4.24971 4.99654 4.10314 5.0057 4.05734 5.06066C3.97489 5.16143 3.91992 5.31717 3.93825 5.43626C3.96573 5.60115 4.1123 5.67444 4.29552 5.67444C5.94446 5.69276 7.58424 5.69276 9.22403 5.69276ZM9.04081 7.2959C10.6165 7.2959 12.2013 7.2959 13.7769 7.2959C13.9785 7.2959 14.1067 7.21345 14.1617 7.0394C14.2167 6.8745 14.1434 6.72793 13.9968 6.65464C13.9144 6.60884 13.8044 6.60884 13.7128 6.60884C10.6073 6.60884 7.5018 6.60884 4.39629 6.60884C4.34132 6.60884 4.27719 6.59052 4.24055 6.618C4.13062 6.70045 3.97489 6.77373 3.93825 6.89283C3.91076 6.98443 3.99321 7.14933 4.07566 7.24093C4.12146 7.2959 4.25887 7.30506 4.35048 7.30506C5.91698 7.2959 7.47431 7.2959 9.04081 7.2959Z" fill="#EEEEEE"/>
<path d="M18.3482 17.6107C18.3115 17.6473 18.284 17.6748 18.2474 17.7115C18.2199 17.7389 18.1924 17.7664 18.1649 17.7939C18.1008 17.8397 18.0459 17.8763 17.9817 17.9222C17.9359 17.9496 17.881 17.9863 17.8352 18.0138C17.7894 18.0229 17.7527 18.0412 17.7069 18.0504C17.6245 18.0779 17.542 18.1054 17.4596 18.1328C17.2397 18.1328 17.0198 18.1328 16.8 18.1328C12.8792 18.1328 8.95834 18.1328 5.03752 18.1328C4.89095 18.1328 4.74437 18.1237 4.60696 18.1237C4.68025 18.0687 4.75353 17.9954 4.83598 17.9496C5.41311 17.6015 5.6971 17.0336 5.87115 16.4289C6.10017 15.632 6.06353 14.8258 5.77038 14.038C5.55052 13.4517 5.2299 12.957 4.62528 12.7005C4.5978 12.6913 4.57948 12.6455 4.56116 12.618C4.61612 12.618 4.67109 12.6089 4.71689 12.6089C8.81177 12.6089 12.9066 12.6089 17.0015 12.6089C17.1115 12.6089 17.2214 12.6089 17.3313 12.6089C17.3863 12.618 17.4504 12.618 17.5054 12.6272C17.5695 12.6547 17.6428 12.6822 17.7069 12.7005C17.7802 12.728 17.8535 12.7646 17.9268 12.7921C17.9634 12.8104 17.9909 12.8287 18.0275 12.8471C18.2016 13.0211 18.3756 13.2043 18.5497 13.3784C18.5863 13.4242 18.6138 13.4792 18.6505 13.525C18.6596 13.5524 18.6688 13.5799 18.678 13.6074C18.6963 13.6349 18.7238 13.6715 18.7421 13.699C18.7696 13.7631 18.7879 13.8181 18.8154 13.8822C18.8337 13.9189 18.852 13.9464 18.8795 13.983C18.8978 14.038 18.907 14.0929 18.9253 14.1571C18.9528 14.2212 18.9803 14.2945 19.0077 14.3586C19.0169 14.4136 19.0261 14.4777 19.0352 14.5327C19.0627 14.6517 19.0902 14.78 19.1177 14.8991C19.1177 14.9449 19.1268 14.9907 19.1268 15.0365C19.1268 15.2655 19.1268 15.4945 19.1268 15.7144C19.1268 15.7602 19.1177 15.806 19.1177 15.8518C19.0902 15.9801 19.0627 16.1083 19.0352 16.2366C19.0261 16.2915 19.0169 16.3557 19.0077 16.4106C18.9803 16.4747 18.9528 16.5389 18.9253 16.603C18.907 16.658 18.8978 16.7129 18.8795 16.7679C18.852 16.8229 18.8245 16.8687 18.797 16.9236C18.6871 17.1068 18.5863 17.2809 18.4764 17.4641C18.4306 17.5099 18.394 17.5557 18.3482 17.6107Z" fill="#E8E9ED"/>
<path d="M4.55201 12.6185C4.57033 12.646 4.58866 12.6918 4.61614 12.7009C5.22075 12.9574 5.55054 13.4521 5.76124 14.0384C6.05438 14.8262 6.09103 15.6324 5.86201 16.4294C5.68795 17.0431 5.40397 17.6019 4.82684 17.9501C4.74439 17.9959 4.68026 18.0691 4.59782 18.1241C4.35048 18.1241 4.11229 18.1241 3.86495 18.1241C3.76418 18.0783 3.66342 18.0325 3.56265 17.9867C3.4802 17.9317 3.38859 17.8768 3.30614 17.8218C3.24202 17.7668 3.17789 17.7027 3.11377 17.6477C3.08629 17.6203 3.04964 17.5836 3.02216 17.5561C2.93971 17.4371 2.85727 17.318 2.77482 17.1989C2.72901 17.1164 2.67405 17.0248 2.62825 16.9424C2.60076 16.8599 2.57328 16.7775 2.5458 16.695C2.49999 16.5759 2.46335 16.466 2.41755 16.3469C2.40839 16.3011 2.39923 16.2645 2.39006 16.2187C2.36258 16.1271 2.3351 16.0354 2.30762 15.9347C2.30762 15.5133 2.30762 15.0919 2.30762 14.6705C2.3809 14.4598 2.44503 14.2491 2.51832 14.0476C2.82978 13.2506 3.44356 12.4627 4.55201 12.6185ZM3.39775 15.4034C3.48936 15.6324 3.54433 15.8889 3.6909 16.1087C3.88328 16.4019 4.19474 16.3744 4.40544 16.0996C4.68026 15.7331 4.72607 15.1285 4.46957 14.7438C4.3688 14.588 4.24971 14.4323 4.01153 14.4506C3.79167 14.469 3.66342 14.6064 3.59013 14.7804C3.50768 14.9636 3.47104 15.1652 3.39775 15.4034Z" fill="#AFB0B4"/>
<path d="M4.55201 12.6185C3.44355 12.4719 2.82062 13.2506 2.53663 14.0567C2.46335 14.2674 2.39922 14.4781 2.32593 14.6797C2.32593 14.0476 2.31677 13.4155 2.31677 12.7925C2.39006 12.7559 2.49083 12.7284 2.54579 12.6735C2.8481 12.3528 3.17789 12.078 3.61761 11.9956C3.90159 11.9406 4.18558 11.8948 4.46956 11.8948C8.55528 11.8856 12.641 11.8948 16.7267 11.8856C16.8366 11.8856 16.9374 11.8765 17.0473 11.8765C17.0473 11.9681 17.0657 12.0597 17.0565 12.1421C17.0199 12.3803 17.1206 12.5269 17.3313 12.6093C17.2214 12.6093 17.1115 12.6093 17.0015 12.6093C12.9067 12.6093 8.81178 12.6093 4.7169 12.6093C4.66194 12.6093 4.60697 12.6093 4.55201 12.6185Z" fill="#8A8B8F"/>
<path d="M15.0596 2.60537C14.7115 2.44047 14.5374 2.7611 14.2992 2.88935C14.1526 2.9718 14.0244 3.10005 13.8778 3.19166C13.8137 3.23746 13.7312 3.24663 13.658 3.27411C14.0244 2.99928 14.3817 2.72446 14.7573 2.46796C14.8763 2.38551 14.9863 2.47712 15.0596 2.60537Z" fill="#6C90C5"/>
<path d="M5.52307 3.16472C5.30321 3.02731 5.06503 2.90822 4.8635 2.75248C4.68944 2.61507 4.52455 2.5143 4.30469 2.61507C4.3963 2.44102 4.53371 2.40437 4.68944 2.52346C4.97343 2.73416 5.24825 2.94486 5.52307 3.16472Z" fill="#6C90C5"/>
<path d="M10.2042 2.82552C10.0852 2.76139 9.95691 2.70643 9.83782 2.62398C9.71873 2.54154 9.63628 2.54154 9.51719 2.62398C9.40726 2.70643 9.27901 2.76139 9.15076 2.82552C9.29733 2.70643 9.4439 2.57818 9.59964 2.45909C9.63628 2.43161 9.71873 2.43161 9.74621 2.45909C9.9111 2.57818 10.0577 2.70643 10.2042 2.82552Z" fill="#6C90C5"/>
<path d="M13.0899 3.05425C12.9433 2.9718 12.7967 2.88935 12.6501 2.8069C12.5952 2.77942 12.5494 2.74278 12.5036 2.69697C12.3662 2.56872 12.2196 2.52292 12.0455 2.59621C12.1555 2.42215 12.2654 2.39467 12.4303 2.53208C12.641 2.72446 12.87 2.88935 13.0899 3.05425Z" fill="#6C90C5"/>
<path d="M12.0089 2.61475C11.9631 2.66971 11.9264 2.743 11.8715 2.77964C11.6699 2.93537 11.4592 3.08195 11.2485 3.22852C11.1936 3.26516 11.1203 3.256 11.0562 3.27432C11.3768 3.05446 11.6974 2.83461 12.0089 2.61475Z" fill="#6C90C5"/>
<path d="M8.30795 3.27432C8.26214 3.27432 8.19802 3.29265 8.17054 3.27432C7.90487 3.09111 7.63921 2.89873 7.38271 2.69719C7.36439 2.67887 7.36439 2.64223 7.35522 2.61475C7.66669 2.83461 7.98732 3.05446 8.30795 3.27432Z" fill="#6C90C5"/>
<path d="M3.91074 2.89844C3.79165 3.12746 3.58095 3.22823 3.34277 3.28319C3.52599 3.15494 3.71837 3.02669 3.91074 2.89844Z" fill="#6C90C5"/>
<path d="M6.79642 2.66943C6.64069 2.77936 6.49411 2.88013 6.33838 2.99006C6.49411 2.88013 6.64069 2.77936 6.79642 2.66943Z" fill="#6C90C5"/>
<path d="M7.3186 2.5965C7.18119 2.5965 7.05294 2.5965 6.91553 2.5965C7.07126 2.3858 7.14455 2.3858 7.3186 2.5965Z" fill="#6C90C5"/>
<path d="M2.63739 2.93531C2.53662 2.89866 2.43585 2.87118 2.33508 2.83454C2.36257 2.7979 2.39005 2.76125 2.41753 2.72461C2.49082 2.7979 2.5641 2.86202 2.63739 2.93531Z" fill="#6C90C5"/>
<path d="M13.4564 3.28345C13.2732 3.3201 13.1907 3.21933 13.1266 3.07275C13.2365 3.13688 13.3464 3.21017 13.4564 3.28345Z" fill="#6C90C5"/>
<path d="M19.0261 16.2368C19.0536 16.1086 19.0811 15.9803 19.1086 15.8521C19.0811 15.9895 19.0536 16.1177 19.0261 16.2368Z" fill="#6C90C5"/>
<path d="M6.23763 3.07275C6.1735 3.21933 6.09105 3.32926 5.90784 3.28345C6.01777 3.21017 6.1277 3.13688 6.23763 3.07275Z" fill="#6C90C5"/>
<path d="M19.1086 14.8996C19.0811 14.7805 19.0536 14.6523 19.0261 14.5332C19.0628 14.6615 19.0811 14.7805 19.1086 14.8996Z" fill="#6C90C5"/>
<path d="M10.8729 3.27429C10.6897 3.32926 10.6255 3.21017 10.5614 3.07275C10.6622 3.13688 10.7629 3.201 10.8729 3.27429Z" fill="#6C90C5"/>
<path d="M8.80256 3.07275C8.73843 3.20101 8.6743 3.32926 8.49109 3.27429C8.59186 3.201 8.70179 3.13688 8.80256 3.07275Z" fill="#6C90C5"/>
<path d="M2.32593 15.9438C2.35341 16.0355 2.38089 16.1271 2.40838 16.2278C2.38089 16.1362 2.35341 16.0446 2.32593 15.9438Z" fill="#6C90C5"/>
<path d="M2.42664 16.356C2.47244 16.475 2.50908 16.585 2.55489 16.7041C2.50908 16.5941 2.47244 16.475 2.42664 16.356Z" fill="#6C90C5"/>
<path d="M2.95806 3.1642C2.86645 3.09091 2.76568 3.01762 2.67407 2.94434C2.76568 3.01762 2.85729 3.09091 2.95806 3.1642Z" fill="#6C90C5"/>
<path d="M10.5248 3.05433C10.4332 2.98105 10.3325 2.90776 10.2408 2.83447C10.3325 2.91692 10.4241 2.99021 10.5248 3.05433Z" fill="#6C90C5"/>
<path d="M9.12322 2.84375C9.03161 2.91704 8.93084 2.99032 8.83923 3.06361C8.93084 2.99032 9.03161 2.91704 9.12322 2.84375Z" fill="#6C90C5"/>
<path d="M15.371 2.83433C15.2886 2.77936 15.2061 2.7244 15.1237 2.66943C15.2153 2.7244 15.2977 2.77936 15.371 2.83433Z" fill="#6C90C5"/>
<path d="M16.7818 2.89844C16.7543 3.02669 16.681 3.09998 16.5344 3.06333C16.6169 3.00837 16.6993 2.9534 16.7818 2.89844Z" fill="#6C90C5"/>
<path d="M3.57178 17.9956C3.67255 18.0414 3.77331 18.0872 3.87408 18.133C3.77331 18.0872 3.67255 18.0414 3.57178 17.9956Z" fill="#6C90C5"/>
<path d="M16.0214 3.28317C15.9389 3.22821 15.8565 3.18241 15.774 3.12744C15.8565 3.17325 15.9389 3.22821 16.0214 3.28317Z" fill="#6C90C5"/>
<path d="M2.63745 16.9604C2.68326 17.0429 2.73822 17.1345 2.78402 17.217C2.73822 17.1253 2.69242 17.0429 2.63745 16.9604Z" fill="#6C90C5"/>
<path d="M15.6917 3.07249C15.6092 3.01753 15.5268 2.96256 15.4535 2.89844C15.5359 2.9534 15.6184 3.00837 15.6917 3.07249Z" fill="#6C90C5"/>
<path d="M4.23132 2.66943C4.1672 2.7244 4.09391 2.7702 4.02979 2.82517C4.09391 2.7702 4.1672 2.7244 4.23132 2.66943Z" fill="#6C90C5"/>
<path d="M3.12305 17.6567C3.18717 17.7117 3.2513 17.7758 3.31542 17.8308C3.2513 17.7758 3.18717 17.7117 3.12305 17.6567Z" fill="#6C90C5"/>
<path d="M17.4596 18.1332C17.542 18.1057 17.6245 18.0783 17.7069 18.0508C17.6245 18.0783 17.542 18.1057 17.4596 18.1332Z" fill="#6C90C5"/>
<path d="M17.0383 2.83442C16.9833 2.83442 16.9192 2.83442 16.8643 2.83442C16.9101 2.79778 16.965 2.75198 17.0108 2.71533C17.02 2.75198 17.0292 2.79778 17.0383 2.83442Z" fill="#6C90C5"/>
<path d="M17.7162 12.7007C17.6521 12.6732 17.5788 12.6458 17.5146 12.6274C17.5788 12.6458 17.6429 12.6732 17.7162 12.7007Z" fill="#6C90C5"/>
<path d="M18.9161 16.603C18.9436 16.5389 18.9711 16.4748 18.9986 16.4106C18.9711 16.4839 18.9436 16.5389 18.9161 16.603Z" fill="#6C90C5"/>
<path d="M19.0079 14.3588C18.9804 14.2946 18.9529 14.2214 18.9254 14.1572C18.9529 14.2214 18.9804 14.2946 19.0079 14.3588Z" fill="#6C90C5"/>
<path d="M17.8352 18.014C17.881 17.9865 17.936 17.9498 17.9818 17.9224C17.936 17.9498 17.881 17.9773 17.8352 18.014Z" fill="#6C90C5"/>
<path d="M18.3481 17.611C18.3848 17.5652 18.4306 17.5194 18.4672 17.4736C18.4306 17.5103 18.3939 17.5561 18.3481 17.611Z" fill="#6C90C5"/>
<path d="M18.797 16.9331C18.8245 16.8781 18.852 16.8323 18.8794 16.7773C18.852 16.8231 18.8245 16.8781 18.797 16.9331Z" fill="#6C90C5"/>
<path d="M18.6596 13.525C18.623 13.4792 18.5955 13.4242 18.5588 13.3784C18.5863 13.4242 18.623 13.4792 18.6596 13.525Z" fill="#6C90C5"/>
<path d="M16.3695 3.17334C16.3145 3.20998 16.2595 3.24663 16.2137 3.28327C16.2687 3.24663 16.3145 3.20998 16.3695 3.17334Z" fill="#6C90C5"/>
<path d="M5.71543 3.28327C5.66046 3.24663 5.61466 3.20998 5.55969 3.17334C5.61466 3.20998 5.66046 3.24663 5.71543 3.28327Z" fill="#6C90C5"/>
<path d="M3.15036 3.28327C3.0954 3.24663 3.04043 3.20998 2.99463 3.17334C3.04043 3.20998 3.0954 3.24663 3.15036 3.28327Z" fill="#6C90C5"/>
<path d="M18.165 17.7939C18.1925 17.7664 18.22 17.7389 18.2475 17.7114C18.22 17.7297 18.1925 17.7664 18.165 17.7939Z" fill="#6C90C5"/>
<path d="M3.03125 17.5649C3.05873 17.5924 3.09538 17.6291 3.12286 17.6565C3.09538 17.6291 3.05873 17.5924 3.03125 17.5649Z" fill="#6C90C5"/>
<path d="M18.7513 13.699C18.7329 13.6715 18.7055 13.6349 18.6871 13.6074C18.7055 13.6349 18.7329 13.6715 18.7513 13.699Z" fill="#6C90C5"/>
<path d="M18.0275 12.8474C17.9909 12.8291 17.9634 12.8108 17.9268 12.7925C17.9634 12.8108 18 12.8291 18.0275 12.8474Z" fill="#6C90C5"/>
<path d="M18.8796 13.9831C18.8612 13.9464 18.8429 13.919 18.8154 13.8823C18.8429 13.919 18.8612 13.9464 18.8796 13.9831Z" fill="#6C90C5"/>
<path d="M9.42562 8.93574C7.75835 8.93574 6.08192 8.93574 4.41466 8.93574C4.29557 8.93574 4.15815 8.90826 4.07571 8.84413C3.99326 8.76169 3.89249 8.57847 3.92913 8.50518C3.9841 8.38609 4.14899 8.30365 4.26808 8.2212C4.30473 8.19372 4.36885 8.2212 4.42382 8.2212C7.75835 8.2212 11.0929 8.2212 14.4274 8.2212C14.7755 8.2212 14.9862 8.35861 14.9771 8.59679C14.9679 8.81665 14.7664 8.9449 14.4274 8.9449C12.7693 8.93574 11.102 8.93574 9.42562 8.93574Z" fill="#555659"/>
<path d="M9.04085 10.548C7.49267 10.548 5.9445 10.548 4.39632 10.548C4.30471 10.548 4.20394 10.548 4.13066 10.5022C4.00241 10.4106 3.83751 10.2824 3.92912 10.1175C4.00241 9.98924 4.1673 9.91595 4.30471 9.8335C4.34136 9.80602 4.40548 9.8335 4.46045 9.8335C7.51099 9.8335 10.5707 9.8335 13.6212 9.8335C13.722 9.8335 13.8228 9.84266 13.9144 9.86099C14.1068 9.90679 14.1892 10.035 14.1709 10.2274C14.1617 10.4198 14.0335 10.5022 13.8686 10.548C13.8045 10.5664 13.7312 10.5572 13.6671 10.5572C12.1189 10.548 10.5799 10.548 9.04085 10.548Z" fill="#555659"/>
<path d="M9.224 5.69255C7.58421 5.69255 5.94443 5.69255 4.30465 5.69255C4.11227 5.69255 3.9657 5.61926 3.94738 5.45437C3.92905 5.33528 3.99318 5.17954 4.06647 5.07877C4.11227 5.01465 4.25884 5.01465 4.35961 5.01465C6.02688 5.01465 7.68498 5.01465 9.35225 5.01465C10.9554 5.01465 12.5585 5.01465 14.1617 5.01465C14.354 5.01465 14.4915 5.0971 14.5189 5.27115C14.5373 5.39024 14.464 5.54597 14.3815 5.64674C14.3357 5.70171 14.1983 5.71087 14.1067 5.71087C12.4761 5.69255 10.8455 5.69255 9.224 5.69255Z" fill="#555659"/>
<path d="M9.0408 7.29595C7.47431 7.29595 5.91697 7.29595 4.35047 7.29595C4.25887 7.29595 4.12145 7.29595 4.07565 7.23183C3.9932 7.14022 3.9016 6.97533 3.93824 6.88372C3.97488 6.77379 4.13062 6.69134 4.24055 6.60889C4.27719 6.58141 4.34131 6.59973 4.39628 6.59973C7.50179 6.59973 10.6073 6.59973 13.7128 6.59973C13.8044 6.59973 13.9143 6.59973 13.9968 6.64554C14.1434 6.72798 14.2167 6.8654 14.1617 7.03029C14.1067 7.20435 13.9785 7.28679 13.7769 7.28679C12.2013 7.29595 10.6256 7.29595 9.0408 7.29595Z" fill="#555659"/>
<path d="M3.39783 15.4034C3.47111 15.1561 3.50776 14.9637 3.5902 14.7805C3.66349 14.6064 3.79174 14.469 4.0116 14.4507C4.24062 14.4324 4.36887 14.5881 4.46964 14.7438C4.71698 15.1286 4.68034 15.7332 4.40552 16.0996C4.19482 16.3836 3.88335 16.4019 3.69097 16.1088C3.5444 15.8981 3.48944 15.6324 3.39783 15.4034Z" fill="#9D9EA2"/>
</svg>
