<svg width="53" height="50" viewBox="0 0 53 50" fill="none" xmlns="http://www.w3.org/2000/svg">
<rect width="52.5613" height="50" rx="5" fill="#40A4EC"/>
<path d="M8.15303 19.2416C8.16007 18.6665 8.64966 18.2161 9.22341 18.2569L42.9035 20.6545C43.4294 20.6919 43.8361 21.1312 43.833 21.6584L43.7877 29.4399C43.7846 29.9753 43.3604 30.413 42.8254 30.4329L9.0505 31.6893C8.47901 31.7105 8.00587 31.249 8.01288 30.6771L8.15303 19.2416Z" fill="white"/>
<path d="M14.8716 29H16.6116V25.64L19.0716 29H21.0516L18.2076 25.16L20.8716 21.44H18.8916L16.6116 24.68V21.44H14.8716V29ZM23.2568 29H24.9968V26.18L27.5168 21.44H25.6568L24.1328 24.44L22.5968 21.44H20.7368L23.2568 26.18V29ZM32.8475 26.24C32.6675 26.852 32.1275 27.38 31.1675 27.38C30.0755 27.38 29.1875 26.468 29.1875 25.22C29.1875 23.972 30.0755 23.06 31.1675 23.06C32.0675 23.06 32.5955 23.6 32.7875 24.2L34.5875 24.08C34.2395 22.64 32.9555 21.38 31.1675 21.38C29.1155 21.38 27.4475 23.06 27.4475 25.22C27.4475 27.38 29.1155 29.06 31.1675 29.06C33.0275 29.06 34.2995 27.8 34.6475 26.36L32.8475 26.24Z" fill="black"/>
</svg>
