<svg width="17" height="18" viewBox="0 0 17 18" fill="none" xmlns="http://www.w3.org/2000/svg">
<g clip-path="url(#clip0_87233_2809)">
<path opacity="0.35" d="M2.41934 17.9996C1.2987 17.9996 0.387085 17.088 0.387085 15.9674V4.16091C0.387085 3.04027 1.2987 2.12865 2.41934 2.12865H2.74489C2.92741 1.13885 3.79683 0.386719 4.8387 0.386719C4.93044 0.386719 5.02334 0.392719 5.11489 0.404525C6.02979 0.522009 6.01721 1.23175 6.19354 2.12865H9.71263C9.89515 1.13885 10.7646 0.386719 11.8064 0.386719C11.8982 0.386719 11.9911 0.392719 12.0826 0.404525C12.9975 0.522009 12.985 1.23175 13.1613 2.12865H14.2258C15.3464 2.12865 16.2581 3.04027 16.2581 4.16091V15.9674C16.2581 17.088 15.3464 17.9996 14.2258 17.9996H2.41934Z" fill="black"/>
<path d="M2.03226 17.6129C0.911613 17.6129 0 16.7013 0 15.5806V3.77419C0 2.65355 0.911613 1.74194 2.03226 1.74194H2.35781C2.54032 0.752129 3.40974 0 4.45161 0C4.54335 0 4.63626 0.006 4.72781 0.0178065C5.64271 0.13529 6.3629 0.845032 6.53923 1.74194H9.32555C9.50806 0.752129 10.3775 0 11.4194 0C11.5111 0 11.604 0.006 11.6955 0.0178065C12.6105 0.13529 13.3306 0.845032 13.507 1.74194H13.8387C14.9594 1.74194 15.871 2.65355 15.871 3.77419V15.5806C15.871 16.7013 14.9594 17.6129 13.8387 17.6129H2.03226Z" fill="#F2F2F2"/>
<path d="M13.6452 16.3548H2.2258C1.69141 16.3548 1.25806 15.9215 1.25806 15.3871V3.96774C1.25806 3.43335 1.69141 3 2.2258 3H13.6452C14.1795 3 14.6129 3.43335 14.6129 3.96774V15.3871C14.6129 15.9215 14.1795 16.3548 13.6452 16.3548Z" fill="#D9EEFF"/>
<path d="M8.13084 8.16563L8.98217 9.89039L10.8856 10.167C11.082 10.1956 11.1605 10.4368 11.0183 10.5754L9.64102 11.9179L9.96622 13.8137C9.99984 14.0093 9.79452 14.1584 9.61893 14.0662L8.02785 13.2296C7.95817 13.1929 7.87484 13.1929 7.80499 13.2296L6.21392 14.0662C6.03832 14.1584 5.833 14.0093 5.86662 13.8137L6.19182 11.9179L4.81452 10.5754C4.67239 10.4368 4.75084 10.1956 4.94723 10.167L6.85067 9.89039L7.702 8.16563C7.78923 7.98776 8.04296 7.98776 8.13084 8.16563Z" fill="#40A4EC"/>
<path d="M14.6129 6.3871V4.16787C14.6129 3.52277 14.1795 3 13.6452 3H2.2258C1.69141 3 1.25806 3.52297 1.25806 4.16787V6.3871H14.6129Z" fill="#EFB604"/>
<path d="M12.3871 3H13.8387C14.2662 3 14.6129 3.34665 14.6129 3.77419V15.5806C14.6129 16.0082 14.2662 16.3548 13.8387 16.3548H2.03225C1.6047 16.3548 1.25806 16.0082 1.25806 15.5806V3.77419C1.25806 3.34665 1.6047 3 2.03225 3H3.48386" stroke="#424446" stroke-width="0.5" stroke-miterlimit="10"/>
<path d="M5.41931 3H10.4516" stroke="#424446" stroke-width="0.5" stroke-miterlimit="10"/>
<path d="M3.87093 2.90323V2.16194C3.87093 1.84762 4.10628 1.56581 4.42022 1.54936C4.75506 1.53155 5.03222 1.79787 5.03222 2.12903V2.90323C5.03222 3.1171 5.20544 3.29033 5.41932 3.29033H5.61286V2.16949C5.61286 1.57936 5.18977 1.05271 4.60448 0.977615C3.89628 0.886648 3.29028 1.43845 3.29028 2.12903V3.29033H3.48383C3.6977 3.29033 3.87093 3.1171 3.87093 2.90323Z" fill="#424446"/>
<path d="M10.8387 2.90323V2.16194C10.8387 1.84762 11.0741 1.56581 11.388 1.54936C11.7228 1.53155 12 1.79787 12 2.12903V2.90323C12 3.1171 12.1732 3.29033 12.3871 3.29033H12.5806V2.16949C12.5806 1.57936 12.1575 1.05271 11.5723 0.977615C10.8641 0.886648 10.2581 1.43845 10.2581 2.12903V3.29033H10.4516C10.6655 3.29033 10.8387 3.1171 10.8387 2.90323Z" fill="#424446"/>
<path d="M4.45163 5.61322C4.9861 5.61322 5.41937 5.17995 5.41937 4.64548C5.41937 4.11101 4.9861 3.67773 4.45163 3.67773C3.91716 3.67773 3.48389 4.11101 3.48389 4.64548C3.48389 5.17995 3.91716 5.61322 4.45163 5.61322Z" fill="#424446"/>
<path d="M11.4194 5.61322C11.9539 5.61322 12.3871 5.17995 12.3871 4.64548C12.3871 4.11101 11.9539 3.67773 11.4194 3.67773C10.8849 3.67773 10.4517 4.11101 10.4517 4.64548C10.4517 5.17995 10.8849 5.61322 11.4194 5.61322Z" fill="#424446"/>
<path d="M4.45162 5.22625C4.13091 5.22625 3.87097 4.96631 3.87097 4.6456V2.12947C3.87097 1.80876 4.13091 1.54883 4.45162 1.54883C4.77233 1.54883 5.03226 1.80876 5.03226 2.12947V4.6456C5.03226 4.96631 4.77233 5.22625 4.45162 5.22625Z" fill="#D9EEFF"/>
<path d="M11.4194 5.22625C11.0987 5.22625 10.8387 4.96631 10.8387 4.6456V2.12947C10.8387 1.80876 11.0987 1.54883 11.4194 1.54883C11.7401 1.54883 12 1.80876 12 2.12947V4.6456C12 4.96631 11.7401 5.22625 11.4194 5.22625Z" fill="#D9EEFF"/>
</g>
<defs>
<clipPath id="clip0_87233_2809">
<rect width="16.2581" height="18" fill="white"/>
</clipPath>
</defs>
</svg>
