<svg width="15" height="4" viewBox="0 0 15 4" fill="none" xmlns="http://www.w3.org/2000/svg">
<g clip-path="url(#clip0_87213_9897)">
<path d="M1.85759 3.76471C2.8835 3.76471 3.71517 2.92195 3.71517 1.88235C3.71517 0.842758 2.8835 0 1.85759 0C0.831669 0 0 0.842758 0 1.88235C0 2.92195 0.831669 3.76471 1.85759 3.76471Z" fill="#E9E9E9"/>
<path d="M7.43034 3.76471C8.45626 3.76471 9.28792 2.92195 9.28792 1.88235C9.28792 0.842758 8.45626 0 7.43034 0C6.40442 0 5.57275 0.842758 5.57275 1.88235C5.57275 2.92195 6.40442 3.76471 7.43034 3.76471Z" fill="#E9E9E9"/>
<path d="M13.0031 3.76471C14.029 3.76471 14.8607 2.92195 14.8607 1.88235C14.8607 0.842758 14.029 0 13.0031 0C11.9772 0 11.1455 0.842758 11.1455 1.88235C11.1455 2.92195 11.9772 3.76471 13.0031 3.76471Z" fill="#E9E9E9"/>
</g>
<defs>
<clipPath id="clip0_87213_9897">
<rect width="15" height="4" fill="white"/>
</clipPath>
</defs>
</svg>
