<svg width="70" height="70" viewBox="0 0 70 70" fill="none" xmlns="http://www.w3.org/2000/svg">
<g style="mix-blend-mode:luminosity">
<path opacity="0.35" d="M61.2501 24.5001H50.7491C50.9746 23.961 51.1001 23.37 51.1001 22.7501V20.6501C51.1001 19.8925 50.9114 19.179 50.5825 18.5501C50.9114 17.9212 51.1001 17.2077 51.1001 16.4501V13.6501C51.1001 11.1413 49.0589 9.1001 46.5501 9.1001H43.7501C42.9925 9.1001 42.2791 9.28877 41.6501 9.61775C41.0212 9.28877 40.3077 9.1001 39.5501 9.1001H37.4501C36.5478 9.1001 35.7082 9.36738 35.0001 9.82214C34.292 9.36738 33.4524 9.1001 32.5501 9.1001H30.4501C29.5478 9.1001 28.7082 9.36738 28.0001 9.82214C27.292 9.36738 26.4524 9.1001 25.5501 9.1001H23.4501C22.6925 9.1001 21.9791 9.28877 21.3501 9.61775C20.7212 9.28877 20.0077 9.1001 19.2501 9.1001H17.1501C16.3925 9.1001 15.679 9.28877 15.0501 9.61775C14.4212 9.28877 13.7077 9.1001 12.9501 9.1001H10.1501C7.64131 9.1001 5.6001 11.1413 5.6001 13.6501V16.4501C5.6001 17.2077 5.78886 17.9212 6.11779 18.5501C5.78886 19.179 5.6001 19.8925 5.6001 20.6501V22.7501C5.6001 23.5077 5.78886 24.2212 6.11779 24.8501C5.78886 25.479 5.6001 26.1925 5.6001 26.9501V29.0501C5.6001 29.9524 5.86734 30.792 6.32219 31.5001C5.86734 32.2082 5.6001 33.0478 5.6001 33.9501V36.0501C5.6001 36.9524 5.86734 37.792 6.32219 38.5001C5.86734 39.2082 5.6001 40.0478 5.6001 40.9501V43.7501C5.6001 46.2589 7.64131 48.3001 10.1501 48.3001H12.9501C13.7077 48.3001 14.4212 48.1113 15.0501 47.7824C15.679 48.1113 16.3925 48.3001 17.1501 48.3001H19.2501C19.87 48.3001 20.461 48.1746 21.0001 47.9491V57.0501C21.0001 60.7169 23.9833 63.7001 27.6501 63.7001H61.2501C64.9169 63.7001 67.9001 60.7169 67.9001 57.0501V31.1501C67.9001 27.4833 64.9169 24.5001 61.2501 24.5001Z" fill="black"/>
<path d="M59.85 23.1002H49.3489C49.5745 22.5611 49.7 21.9701 49.7 21.3502V19.2502C49.7 18.4926 49.5112 17.7791 49.1823 17.1502C49.5112 16.5213 49.7 15.8078 49.7 15.0502V12.2502C49.7 9.74141 47.6588 7.7002 45.15 7.7002H42.35C41.5924 7.7002 40.8789 7.88887 40.25 8.21785C39.621 7.88887 38.9076 7.7002 38.15 7.7002H36.05C35.1477 7.7002 34.3081 7.96748 33.6 8.42224C32.8918 7.96748 32.0522 7.7002 31.15 7.7002H29.05C28.1477 7.7002 27.3081 7.96748 26.6 8.42224C25.8918 7.96748 25.0522 7.7002 24.15 7.7002H22.05C21.2924 7.7002 20.5789 7.88887 19.95 8.21785C19.321 7.88887 18.6075 7.7002 17.85 7.7002H15.75C14.9924 7.7002 14.2789 7.88887 13.65 8.21785C13.021 7.88887 12.3075 7.7002 11.55 7.7002H8.74995C6.24116 7.7002 4.19995 9.74141 4.19995 12.2502V15.0502C4.19995 15.8078 4.38871 16.5213 4.71765 17.1502C4.38871 17.7791 4.19995 18.4926 4.19995 19.2502V21.3502C4.19995 22.1078 4.38871 22.8213 4.71765 23.4502C4.38871 24.0791 4.19995 24.7926 4.19995 25.5502V27.6502C4.19995 28.5525 4.46719 29.3921 4.92204 30.1002C4.46719 30.8083 4.19995 31.6479 4.19995 32.5502V34.6502C4.19995 35.5525 4.46719 36.3921 4.92204 37.1002C4.46719 37.8083 4.19995 38.6479 4.19995 39.5502V42.3502C4.19995 44.859 6.24116 46.9002 8.74995 46.9002H11.55C12.3075 46.9002 13.021 46.7114 13.65 46.3825C14.2789 46.7114 14.9924 46.9002 15.75 46.9002H17.85C18.4699 46.9002 19.0609 46.7747 19.6 46.5492V55.6502C19.6 59.317 22.5832 62.3002 26.25 62.3002H59.85C63.5168 62.3002 66.5 59.317 66.5 55.6502V29.7502C66.5 26.0834 63.5168 23.1002 59.85 23.1002Z" fill="#F2F2F2"/>
<path d="M8.75 15.05V12.25H11.55" stroke="#747678" stroke-width="1.5" stroke-miterlimit="10" stroke-linecap="round" stroke-linejoin="round"/>
<path d="M15.75 12.25H17.85" stroke="#747678" stroke-width="1.5" stroke-miterlimit="10" stroke-linecap="round" stroke-linejoin="round"/>
<path d="M45.1501 15.05V12.25H42.3501" stroke="#747678" stroke-width="1.5" stroke-miterlimit="10" stroke-linecap="round" stroke-linejoin="round"/>
<path d="M22.05 12.25H24.15" stroke="#747678" stroke-width="1.5" stroke-miterlimit="10" stroke-linecap="round" stroke-linejoin="round"/>
<path d="M29.05 12.25H31.15" stroke="#747678" stroke-width="1.5" stroke-miterlimit="10" stroke-linecap="round" stroke-linejoin="round"/>
<path d="M36.05 12.25H38.15" stroke="#747678" stroke-width="1.5" stroke-miterlimit="10" stroke-linecap="round" stroke-linejoin="round"/>
<path d="M29.05 42.3501H31.15" stroke="#747678" stroke-width="1.5" stroke-miterlimit="10" stroke-linecap="round" stroke-linejoin="round"/>
<path d="M36.05 42.3501H38.15" stroke="#747678" stroke-width="1.5" stroke-miterlimit="10" stroke-linecap="round" stroke-linejoin="round"/>
<path d="M15.75 42.3501H17.85" stroke="#747678" stroke-width="1.5" stroke-miterlimit="10" stroke-linecap="round" stroke-linejoin="round"/>
<path d="M22.05 42.3501H24.15" stroke="#747678" stroke-width="1.5" stroke-miterlimit="10" stroke-linecap="round" stroke-linejoin="round"/>
<path d="M45.1499 19.25V21.35" stroke="#747678" stroke-width="1.5" stroke-miterlimit="10" stroke-linecap="round" stroke-linejoin="round"/>
<path d="M42.3501 42.3498H45.1501V39.5498" stroke="#747678" stroke-width="1.5" stroke-miterlimit="10" stroke-linecap="round" stroke-linejoin="round"/>
<path d="M45.1499 25.5498V27.6498" stroke="#747678" stroke-width="1.5" stroke-miterlimit="10" stroke-linecap="round" stroke-linejoin="round"/>
<path d="M45.1499 32.5498V34.6498" stroke="#747678" stroke-width="1.5" stroke-miterlimit="10" stroke-linecap="round" stroke-linejoin="round"/>
<path d="M8.75 19.25V21.35" stroke="#747678" stroke-width="1.5" stroke-miterlimit="10" stroke-linecap="round" stroke-linejoin="round"/>
<path d="M8.75 25.5498V27.6498" stroke="#747678" stroke-width="1.5" stroke-miterlimit="10" stroke-linecap="round" stroke-linejoin="round"/>
<path d="M8.75 39.5498V42.3498H11.55" stroke="#747678" stroke-width="1.5" stroke-miterlimit="10" stroke-linecap="round" stroke-linejoin="round"/>
<path d="M8.75 34.6498V32.5498" stroke="#747678" stroke-width="1.5" stroke-miterlimit="10" stroke-linecap="round" stroke-linejoin="round"/>
<path d="M59.8499 57.7499H26.2499C25.0901 57.7499 24.1499 56.8097 24.1499 55.6499V29.7499C24.1499 28.5901 25.0901 27.6499 26.2499 27.6499H59.8499C61.0097 27.6499 61.9499 28.5901 61.9499 29.7499V55.6499C61.9499 56.8097 61.0097 57.7499 59.8499 57.7499Z" fill="#D9DADE" stroke="#747678" stroke-width="1.5" stroke-miterlimit="10"/>
<path d="M45.4161 50.2371C45.385 50.2371 45.3538 50.2316 45.324 50.2206C45.255 50.1951 45.1997 50.1424 45.1712 50.0746L43.3742 45.8275L40.816 48.3858C40.7401 48.4617 40.6255 48.4849 40.526 48.4434C40.4265 48.4023 40.3618 48.3053 40.3618 48.1976V35.429C40.3618 35.3233 40.4244 35.2277 40.5211 35.1853C40.6175 35.1431 40.7305 35.1619 40.8082 35.2334L49.8526 43.5685C49.9282 43.6382 49.9569 43.7449 49.9264 43.843C49.8959 43.9411 49.8117 44.0129 49.7099 44.0274L46.3327 44.51L48.1423 48.6226C48.1995 48.7524 48.1447 48.9042 48.0179 48.9677L45.5351 50.2091C45.4976 50.2277 45.4569 50.2371 45.4161 50.2371Z" fill="white"/>
</g>
</svg>
