<svg width="9" height="14" viewBox="0 0 9 14" fill="none" xmlns="http://www.w3.org/2000/svg">
<g clip-path="url(#clip0_87028_7231)">
<path d="M2 3.5C2.82843 3.5 3.5 2.82843 3.5 2C3.5 1.17157 2.82843 0.5 2 0.5C1.17157 0.5 0.5 1.17157 0.5 2C0.5 2.82843 1.17157 3.5 2 3.5Z" fill="#727476"/>
<path d="M2 8.5C2.82843 8.5 3.5 7.82843 3.5 7C3.5 6.17157 2.82843 5.5 2 5.5C1.17157 5.5 0.5 6.17157 0.5 7C0.5 7.82843 1.17157 8.5 2 8.5Z" fill="#727476"/>
<path d="M2 13.5C2.82843 13.5 3.5 12.8284 3.5 12C3.5 11.1716 2.82843 10.5 2 10.5C1.17157 10.5 0.5 11.1716 0.5 12C0.5 12.8284 1.17157 13.5 2 13.5Z" fill="#727476"/>
<path d="M7 3.5C7.82843 3.5 8.5 2.82843 8.5 2C8.5 1.17157 7.82843 0.5 7 0.5C6.17157 0.5 5.5 1.17157 5.5 2C5.5 2.82843 6.17157 3.5 7 3.5Z" fill="#727476"/>
<path d="M7 8.5C7.82843 8.5 8.5 7.82843 8.5 7C8.5 6.17157 7.82843 5.5 7 5.5C6.17157 5.5 5.5 6.17157 5.5 7C5.5 7.82843 6.17157 8.5 7 8.5Z" fill="#727476"/>
<path d="M7 13.5C7.82843 13.5 8.5 12.8284 8.5 12C8.5 11.1716 7.82843 10.5 7 10.5C6.17157 10.5 5.5 11.1716 5.5 12C5.5 12.8284 6.17157 13.5 7 13.5Z" fill="#727476"/>
</g>
<defs>
<clipPath id="clip0_87028_7231">
<rect width="9" height="14" fill="white"/>
</clipPath>
</defs>
</svg>
