<svg width="18" height="18" viewBox="0 0 18 18" fill="none" xmlns="http://www.w3.org/2000/svg">
<g clip-path="url(#clip0_87026_27757)">
<path opacity="0.35" d="M9.1999 18.0004C14.06 18.0004 17.9999 14.0605 17.9999 9.20039C17.9999 4.34028 14.06 0.400391 9.1999 0.400391C4.3398 0.400391 0.399902 4.34028 0.399902 9.20039C0.399902 14.0605 4.3398 18.0004 9.1999 18.0004Z" fill="black"/>
<path d="M8.8 17.6C13.6601 17.6 17.6 13.6601 17.6 8.8C17.6 3.93989 13.6601 0 8.8 0C3.93989 0 0 3.93989 0 8.8C0 13.6601 3.93989 17.6 8.8 17.6Z" fill="#F2F2F2"/>
<path d="M8.80005 1.2998C4.65785 1.2998 1.30005 4.6576 1.30005 8.7998C1.30005 12.942 4.65785 16.2998 8.80005 16.2998C12.9422 16.2998 16.3 12.942 16.3 8.7998C16.3 4.6576 12.9422 1.2998 8.80005 1.2998Z" fill="#70BFFF"/>
<path opacity="0.35" d="M15.4844 12.1998H12.4136C12.6414 11.2612 12.7754 10.2136 12.7962 9.0998H16.2924C16.2964 9.0002 16.3 8.9004 16.3 8.7998C16.3 8.6992 16.2964 8.5994 16.2924 8.4998H12.7962C12.774 7.3058 12.6204 6.189 12.3622 5.1998H15.3804C15.2674 4.9938 15.1456 4.7934 15.0144 4.5998H12.1876C11.7092 3.1154 10.9796 1.9862 10.107 1.4156C9.68245 1.341 9.24625 1.2998 8.80005 1.2998C8.35385 1.2998 7.91765 1.341 7.49305 1.4156C6.62025 1.9862 5.89065 3.1154 5.41245 4.5998H2.58565C2.45445 4.7934 2.33265 4.9938 2.21965 5.1998H5.23785C4.97945 6.189 4.82585 7.3058 4.80385 8.4998H1.30765C1.30365 8.5994 1.30005 8.6992 1.30005 8.7998C1.30005 8.9004 1.30365 9.0002 1.30765 9.0998H4.80385C4.82445 10.2136 4.95865 11.2612 5.18645 12.1998H2.11565C2.22045 12.4054 2.33425 12.6056 2.45705 12.7998H5.34985C5.82565 14.3816 6.58025 15.5872 7.49105 16.1836C7.91625 16.2584 8.35325 16.2998 8.80005 16.2998C9.24685 16.2998 9.68385 16.2584 10.1092 16.1836C11.02 15.5872 11.7746 14.3816 12.2504 12.7998H15.1432C15.2658 12.6056 15.3796 12.4054 15.4844 12.1998ZM8.50005 15.9688C7.47065 15.7676 6.55625 14.5466 5.99225 12.7998H8.50005V15.9688ZM8.50005 12.1998H5.81765C5.57405 11.2644 5.42665 10.2098 5.40385 9.0998H8.50005V12.1998ZM8.50005 8.4998H5.40385C5.42825 7.3096 5.59685 6.184 5.87265 5.1998H8.50005V8.4998ZM8.50005 4.5998H6.05985C6.62785 2.9604 7.51045 1.8242 8.50005 1.6308V4.5998ZM9.10005 1.6308C10.0896 1.8242 10.9722 2.9604 11.5402 4.5998H9.10005V1.6308ZM9.10005 15.9688V12.7998H11.6078C11.0438 14.5466 10.1294 15.7676 9.10005 15.9688ZM11.7824 12.1998H9.10005V9.0998H12.1962C12.1734 10.2098 12.026 11.2644 11.7824 12.1998ZM9.10005 8.4998V5.1998H11.7274C12.0032 6.184 12.1718 7.3096 12.1962 8.4998H9.10005Z" fill="#40396E"/>
<path d="M8.80005 1.2998C4.65785 1.2998 1.30005 4.6576 1.30005 8.7998C1.30005 12.942 4.65785 16.2998 8.80005 16.2998C12.9422 16.2998 16.3 12.942 16.3 8.7998C16.3 4.6576 12.9422 1.2998 8.80005 1.2998Z" stroke="#40396E" stroke-linecap="round"/>
</g>
<defs>
<clipPath id="clip0_87026_27757">
<rect width="18" height="18" fill="white"/>
</clipPath>
</defs>
</svg>
