<svg width="21" height="18" viewBox="0 0 21 18" fill="none" xmlns="http://www.w3.org/2000/svg">
<g clip-path="url(#clip0_87233_9026)">
<path opacity="0.35" d="M14.6539 18.0004C14.3061 18.0004 13.9855 17.8813 13.7308 17.6819C13.476 17.8813 13.1555 18.0004 12.8077 18.0004H7.96155C7.61378 18.0004 7.29324 17.8813 7.03847 17.6819C6.7837 17.8813 6.46316 18.0004 6.11539 18.0004H2.88462C1.54847 18.0004 0.461548 16.9135 0.461548 15.5773V2.88499C0.461548 1.54884 1.54847 0.461914 2.88462 0.461914H7.74578C8.30655 0.461914 8.8537 0.658299 9.2864 1.01484L10.5766 2.0773H17.8846C19.2208 2.0773 20.3077 3.16422 20.3077 4.50038V15.5773C20.3077 16.9135 19.2208 18.0004 17.8846 18.0004H14.6539Z" fill="black"/>
<path d="M14.1923 17.5385C13.8445 17.5385 13.524 17.4194 13.2692 17.22C13.0145 17.4194 12.6939 17.5385 12.3462 17.5385H7.5C7.15223 17.5385 6.83169 17.4194 6.57692 17.22C6.32215 17.4194 6.00162 17.5385 5.65385 17.5385H2.42308C1.08692 17.5385 0 16.4515 0 15.1154V2.42308C0 1.08692 1.08692 0 2.42308 0H7.28423C7.845 0 8.39215 0.196385 8.82485 0.552923L10.1151 1.61538H17.4231C18.7592 1.61538 19.8462 2.70231 19.8462 4.03846V15.1154C19.8462 16.4515 18.7592 17.5385 17.4231 17.5385H14.1923Z" fill="#F2F2F2"/>
<path d="M1.5 15.1154V2.42308C1.5 1.91331 1.91331 1.5 2.42308 1.5H7.28423C7.49838 1.5 7.70585 1.57431 7.87108 1.71046L9.32123 2.90469C9.48646 3.04085 9.69392 3.11515 9.90808 3.11515H17.4231C17.9328 3.11515 18.3462 3.52846 18.3462 4.03823V15.1152C18.3462 15.6249 17.9328 16.0382 17.4231 16.0382H14.1923V15.8075C14.1923 15.2977 13.779 14.8844 13.2692 14.8844C12.7595 14.8844 12.3462 15.2977 12.3462 15.8075V16.0382H7.5V15.8075C7.5 15.2977 7.08669 14.8844 6.57692 14.8844C6.06715 14.8844 5.65385 15.2977 5.65385 15.8075V16.0382H2.42308C1.91331 16.0385 1.5 15.6252 1.5 15.1154Z" fill="#EFB604"/>
<path d="M1.5 5.07715V15.1156C1.5 15.6254 1.91331 16.0387 2.42308 16.0387H5.65385V15.8079C5.65385 15.2981 6.06715 14.8848 6.57692 14.8848C7.08669 14.8848 7.5 15.2981 7.5 15.8079V16.0387H12.3462V15.8079C12.3462 15.2981 12.7595 14.8848 13.2692 14.8848C13.779 14.8848 14.1923 15.2981 14.1923 15.8079V16.0387H17.4231C17.9328 16.0387 18.3462 15.6254 18.3462 15.1156V5.07715H1.5Z" fill="#D9EEFF"/>
<path d="M17.423 16.3851H14.1923C14.0012 16.3851 13.8461 16.23 13.8461 16.0389V15.8081C13.8461 15.4899 13.5874 15.2312 13.2692 15.2312C12.951 15.2312 12.6923 15.4899 12.6923 15.8081V16.0389C12.6923 16.23 12.5372 16.3851 12.3461 16.3851H7.49996C7.30889 16.3851 7.15381 16.23 7.15381 16.0389V15.8081C7.15381 15.4899 6.89512 15.2312 6.57689 15.2312C6.25866 15.2312 5.99996 15.4899 5.99996 15.8081V16.0389C5.99996 16.23 5.84489 16.3851 5.65381 16.3851H2.42304C1.72335 16.3851 1.15381 15.8155 1.15381 15.1158V2.42353C1.15381 1.72384 1.72335 1.1543 2.42304 1.1543H7.28419C7.57773 1.1543 7.86435 1.25699 8.09096 1.44391L9.54112 2.63814C9.64404 2.72307 9.77443 2.76968 9.90804 2.76968H17.423C18.1227 2.76968 18.6923 3.33922 18.6923 4.03891V15.1158C18.6923 15.8155 18.1227 16.3851 17.423 16.3851ZM14.5333 15.6928H17.423C17.7413 15.6928 18 15.4341 18 15.1158V4.03891C18 3.72068 17.7413 3.46199 17.423 3.46199H9.90827C9.6145 3.46199 9.32789 3.3593 9.10127 3.17237L7.65112 1.97814C7.54796 1.89322 7.41781 1.8466 7.28419 1.8466H2.42304C2.10481 1.8466 1.84612 2.1053 1.84612 2.42353V15.1158C1.84612 15.4341 2.10481 15.6928 2.42304 15.6928H5.31273C5.37112 15.0466 5.91573 14.5389 6.57689 14.5389C7.23804 14.5389 7.78266 15.0466 7.84104 15.6928H12.0053C12.0637 15.0466 12.6083 14.5389 13.2694 14.5389C13.9306 14.5389 14.475 15.0466 14.5333 15.6928Z" fill="#424446"/>
<path d="M7.03848 9.46124C7.93063 9.46124 8.65387 8.73801 8.65387 7.84585C8.65387 6.9537 7.93063 6.23047 7.03848 6.23047C6.14633 6.23047 5.4231 6.9537 5.4231 7.84585C5.4231 8.73801 6.14633 9.46124 7.03848 9.46124Z" fill="#40A4EC"/>
<path d="M10.326 12.9232C9.79429 11.4338 8.52529 10.3848 7.04259 10.3848C5.56013 10.3848 4.29182 11.4341 3.76013 12.9232H10.326Z" fill="#40A4EC"/>
<path d="M15.9231 7.61516H11.6539C11.4628 7.61516 11.3077 7.46008 11.3077 7.26901C11.3077 7.07793 11.4628 6.92285 11.6539 6.92285H15.9231C16.1142 6.92285 16.2693 7.07793 16.2693 7.26901C16.2693 7.46008 16.1142 7.61516 15.9231 7.61516Z" fill="#40A4EC"/>
<path d="M15.9231 9.23039H11.6539C11.4628 9.23039 11.3077 9.07532 11.3077 8.88424C11.3077 8.69316 11.4628 8.53809 11.6539 8.53809H15.9231C16.1142 8.53809 16.2693 8.69316 16.2693 8.88424C16.2693 9.07532 16.1142 9.23039 15.9231 9.23039Z" fill="#40A4EC"/>
<path d="M15.9231 10.8466H11.6539C11.4628 10.8466 11.3077 10.6915 11.3077 10.5005C11.3077 10.3094 11.4628 10.1543 11.6539 10.1543H15.9231C16.1142 10.1543 16.2693 10.3094 16.2693 10.5005C16.2693 10.6915 16.1142 10.8466 15.9231 10.8466Z" fill="#40A4EC"/>
</g>
<defs>
<clipPath id="clip0_87233_9026">
<rect width="20.3077" height="18" fill="white"/>
</clipPath>
</defs>
</svg>
