<svg width="14" height="14" viewBox="0 0 14 14" fill="none" xmlns="http://www.w3.org/2000/svg">
<path fill-rule="evenodd" clip-rule="evenodd" d="M7 4.95862C6.4365 4.95862 5.97888 4.50187 5.97888 3.9375C5.97888 3.374 6.4365 2.91725 7 2.91725C7.5635 2.91725 8.02112 3.374 8.02112 3.9375C8.02112 4.50187 7.5635 4.95862 7 4.95862ZM7.875 10.5C7.875 10.9839 7.483 11.375 7 11.375C6.517 11.375 6.125 10.9839 6.125 10.5V7C6.125 6.517 6.517 6.125 7 6.125C7.483 6.125 7.875 6.517 7.875 7V10.5ZM7 0.875C3.61725 0.875 0.875 3.61725 0.875 7C0.875 10.3827 3.61725 13.125 7 13.125C10.3827 13.125 13.125 10.3827 13.125 7C13.125 3.61725 10.3827 0.875 7 0.875Z" fill="#EEEEEE"/>
</svg>
