<svg width="17" height="18" viewBox="0 0 17 18" fill="none" xmlns="http://www.w3.org/2000/svg">
<g clip-path="url(#clip0_87026_27815)">
<path opacity="0.35" d="M2.51 17.1001C1.86488 17.1001 1.34 16.5752 1.34 15.9301V8.91008C1.29248 8.89028 1.2464 8.86742 1.20176 8.8415C1.40066 8.48636 0.619995 8.24552 0.619995 7.83008V6.03008C0.619995 5.61104 0.846075 5.2217 1.20986 5.01398L5.66774 2.46878L7.7696 1.2401C7.94816 1.13552 8.15282 1.08008 8.3609 1.08008C8.36828 1.08008 8.4014 1.08008 8.4104 1.08008C8.61596 1.08008 8.81846 1.13444 8.99648 1.2374L15.5168 5.01776C15.8766 5.22656 16.1 5.61446 16.1 6.03008V7.83008C16.1 8.24678 15.8757 8.63504 15.5148 8.84348C15.4711 8.86868 15.4261 8.89082 15.38 8.91008V15.9301C15.38 16.5752 14.8551 17.1001 14.21 17.1001H2.51Z" fill="black"/>
<path d="M2.15001 16.7397C1.50489 16.7397 0.98001 16.2148 0.98001 15.5697V8.54973C0.93249 8.52993 0.88641 8.50707 0.84177 8.48115C0.48321 8.27289 0.26001 7.88517 0.26001 7.46973V5.66973C0.26001 5.25069 0.48609 4.86135 0.84987 4.65363L5.30775 2.10843L7.40961 0.879747C7.58817 0.775167 7.79283 0.719727 8.00091 0.719727C8.00829 0.719727 8.04141 0.719727 8.05041 0.719727C8.25597 0.719727 8.45847 0.774087 8.63649 0.877047L15.1568 4.65741C15.5166 4.86621 15.74 5.25411 15.74 5.66973V7.46973C15.74 7.88643 15.5157 8.27469 15.1548 8.48313C15.1111 8.50833 15.0661 8.53047 15.02 8.54973V15.5697C15.02 16.2148 14.4951 16.7397 13.85 16.7397H2.15001Z" fill="#F2F2F2"/>
<path d="M13.85 15.5696H2.15002V7.25419L1.52002 7.01965L2.15002 5.30965L8.00002 1.88965L13.85 5.30965L14.84 6.83965L13.85 7.26643V15.5696Z" fill="#70BFFF"/>
<path d="M7.10002 8.45996H8.90002V6.65996H7.10002V8.45996Z" fill="#2785BD"/>
<path d="M3.85991 8.45996H5.65991V6.65996H3.85991V8.45996Z" fill="#2785BD"/>
<path d="M10.34 8.45996H12.14V6.65996H10.34V8.45996Z" fill="#2785BD"/>
<path d="M7.10002 11.5195H8.90002V9.71953H7.10002V11.5195Z" fill="#2785BD"/>
<path d="M3.85991 11.5195H5.65991V9.71953H3.85991V11.5195Z" fill="#2785BD"/>
<path d="M10.34 11.5195H12.14V9.71953H10.34V11.5195Z" fill="#2785BD"/>
<path d="M7.10002 15.2998H8.90002V12.7798H7.10002V15.2998Z" fill="#2785BD"/>
<path d="M3.85991 14.5801H5.65991V12.7801H3.85991V14.5801Z" fill="#2785BD"/>
<path d="M10.34 14.5801H12.14V12.7801H10.34V14.5801Z" fill="#2785BD"/>
<path d="M14.66 7.19918L7.99997 3.41918L1.33997 7.19918V5.93918L7.99997 2.15918L14.66 5.93918V7.19918Z" fill="#2785BD"/>
<path d="M14.5699 5.66965L8.05051 1.88965L8.02495 1.90423L7.99993 1.88965L5.88781 3.12445L1.42993 5.66965V7.46965L2.14993 7.05853V15.5696H13.8499V7.05223L14.5699 7.46965V5.66965Z" stroke="#40396E" stroke-miterlimit="10" stroke-linecap="round" stroke-linejoin="round"/>
</g>
<defs>
<clipPath id="clip0_87026_27815">
<rect width="17" height="18" fill="white"/>
</clipPath>
</defs>
</svg>
