<svg width="80" height="80" viewBox="0 0 80 80" fill="none" xmlns="http://www.w3.org/2000/svg">
<g clip-path="url(#clip0_87032_30049)">
<path opacity="0.35" d="M15.3972 79.9995C7.95717 79.9995 1.90479 73.9472 1.90479 66.5072L1.90859 15.3967C1.90859 7.95668 7.96098 1.9043 15.401 1.9043H66.5115C73.9486 1.9043 80 7.95668 80 15.3967V66.5072C80 73.9472 73.9476 79.9995 66.5076 79.9995H15.3972Z" fill="black"/>
<path d="M13.4924 78.0952C6.05238 78.0952 0 72.0429 0 64.6029L0.00380925 13.4924C0.00380925 6.05238 6.05619 0 13.4962 0H64.6067C72.0438 0 78.0952 6.05238 78.0952 13.4924V64.6029C78.0952 72.0429 72.0429 78.0952 64.6029 78.0952H13.4924Z" fill="#F2F2F2"/>
<path d="M64.2209 6.68652H13.8819C9.91617 6.68652 6.69045 9.91033 6.69045 13.878L6.68665 64.217C6.68665 68.1827 9.91236 71.4084 13.8781 71.4084H64.2171C68.1885 71.4084 71.4085 68.1884 71.4085 64.217V13.878C71.4085 9.91033 68.1866 6.68652 64.2209 6.68652ZM13.3333 64.7618V13.3332H64.7619V64.7618H13.3333Z" fill="#40A4EC"/>
<path d="M64.6029 73.3332H13.4924C8.67815 73.3332 4.76196 69.417 4.76196 64.6027L4.76577 13.4922C4.76577 8.67791 8.68196 4.76172 13.4962 4.76172H64.6067C69.4191 4.76172 73.3334 8.67791 73.3334 13.4922V64.6027C73.3334 69.417 69.4172 73.3332 64.6029 73.3332ZM13.4962 7.61886C10.2582 7.61886 7.62292 10.2541 7.62292 13.4922L7.61911 64.6027C7.61911 67.8408 10.2543 70.476 13.4924 70.476H64.6029C67.841 70.476 70.4763 67.8408 70.4763 64.6027V13.4922C70.4763 10.2541 67.8429 7.61886 64.6067 7.61886H13.4962Z" fill="#424446"/>
<path d="M26.6666 10.4766H32.3809V69.5242H26.6666V10.4766Z" fill="#40A4EC"/>
<path d="M45.7142 10.4766H51.4285V69.5242H45.7142V10.4766Z" fill="#40A4EC"/>
<path d="M68.5714 26.667V32.3813H9.5238V26.667H68.5714Z" fill="#40A4EC"/>
<path d="M68.5714 45.7139V51.4282H9.5238V45.7139H68.5714Z" fill="#40A4EC"/>
</g>
<defs>
<clipPath id="clip0_87032_30049">
<rect width="80" height="80" fill="white"/>
</clipPath>
</defs>
</svg>
