<svg width="97" height="23" viewBox="0 0 97 23" fill="none" xmlns="http://www.w3.org/2000/svg">
<path d="M0.243125 2.07046C0.257091 0.938783 1.20649 0.0444853 2.33699 0.0981113L94.7604 4.48225C95.8284 4.53291 96.668 5.4146 96.6664 6.4838L96.6486 18.1628C96.6469 19.2526 95.773 20.1402 94.6834 20.1587L2.06006 21.7371C0.932362 21.7563 0.0114958 20.8398 0.0254137 19.712L0.243125 2.07046Z" fill="white"/>
<path d="M15.9386 17.5298H18.3209V4.83778H15.9386V17.5298Z" fill="#05020D" fill-opacity="0.13"/>
<path d="M19.7398 14.6086C19.9184 16.4419 21.1294 17.6305 23.5117 17.6305C25.5764 17.6305 26.8866 16.321 26.8866 14.8101C26.8866 11.5061 22.2213 12.2717 22.2213 10.9823C22.2213 10.4787 22.6184 10.0757 23.3132 10.0757C24.008 10.0757 24.5043 10.5794 24.6036 10.9823H26.7874C26.569 9.37063 25.4176 8.16187 23.2139 8.16187C21.2287 8.16187 19.9383 9.47136 19.9383 10.9823C19.9383 14.1855 24.6036 13.3998 24.6036 14.7093C24.6036 15.213 24.1073 15.7166 23.3132 15.7166C22.5191 15.7166 22.0228 15.2331 21.9235 14.6086H19.7398Z" fill="#05020D" fill-opacity="0.13"/>
<path d="M27.6091 14.6086C27.7878 16.4419 28.9988 17.6305 31.3811 17.6305C33.4457 17.6305 34.756 16.321 34.756 14.8101C34.756 11.5061 30.0907 12.2717 30.0907 10.9823C30.0907 10.4787 30.4877 10.0757 31.1826 10.0757C31.8774 10.0757 32.3737 10.5794 32.473 10.9823H34.6567C34.4384 9.37063 33.2869 8.16187 31.0833 8.16187C29.0981 8.16187 27.8076 9.47136 27.8076 10.9823C27.8076 14.1855 32.473 13.3998 32.473 14.7093C32.473 15.213 31.9767 15.7166 31.1826 15.7166C30.3885 15.7166 29.8922 15.2331 29.7929 14.6086H27.6091Z" fill="#05020D" fill-opacity="0.13"/>
<path d="M35.9748 13.702C35.9748 16.1195 37.4836 17.6305 39.6475 17.6305C40.382 17.6305 41.0372 17.3887 41.4938 17.1268C41.7519 16.9858 42.0099 16.8045 42.2283 16.6232L42.6254 17.5298H44.3128V8.2626H42.0298V13.3998C42.0298 14.6086 41.2556 15.4144 40.1438 15.4144C39.0321 15.4144 38.2578 14.6086 38.2578 13.3998V8.2626H35.9748V13.702Z" fill="#05020D" fill-opacity="0.13"/>
<path d="M51.6929 17.5298H53.3803V11.7882C53.3803 9.69297 51.8715 8.16187 49.8069 8.16187C47.5238 8.16187 46.154 9.59224 45.9356 11.2845H48.2187C48.2584 11.1032 48.3378 10.9219 48.4569 10.7809C48.6753 10.5391 48.9929 10.2772 49.6084 10.2772C50.5017 10.2772 51.0973 10.8614 51.0973 11.8889C46.9283 11.8889 45.6379 13.1782 45.6379 15.0115C45.6379 16.5426 46.7297 17.6305 48.715 17.6305C49.5091 17.6305 50.1444 17.3887 50.601 17.1268C50.8591 16.9858 51.0774 16.8045 51.2958 16.6232L51.6929 17.5298ZM51.0973 13.9035C51.0973 15.0317 50.3032 15.8174 49.112 15.8174C48.4172 15.8174 47.9209 15.3137 47.9209 14.8101C47.9209 14.0042 48.4172 13.5006 51.0973 13.5006V13.9035Z" fill="#05020D" fill-opacity="0.13"/>
<path d="M54.99 17.5298H57.273V12.3925C57.273 11.1838 58.0472 10.3779 59.159 10.3779C60.2707 10.3779 61.045 11.1838 61.045 12.3925V17.5298H63.328V12.0903C63.328 9.67282 61.8192 8.16187 59.6553 8.16187C58.881 8.16187 58.2656 8.42377 57.809 8.66552C57.5509 8.80655 57.2928 8.98786 57.0745 9.16917L56.6774 8.2626H54.99V17.5298Z" fill="#05020D" fill-opacity="0.13"/>
<path d="M71.0081 14.1049C70.9089 14.3668 70.75 14.5884 70.5714 14.7698C70.2537 15.0921 69.7574 15.4144 69.0229 15.4144C67.7325 15.4144 66.7399 14.4273 66.7399 12.8962C66.7399 11.3651 67.7325 10.3779 69.0229 10.3779C69.7574 10.3779 70.2537 10.7204 70.5714 11.0428C70.75 11.2241 70.9089 11.4457 71.0081 11.6874H73.2912C72.8743 9.85414 71.2067 8.16187 69.0229 8.16187C66.5612 8.16187 64.4568 10.2772 64.4568 12.8962C64.4568 15.5152 66.5612 17.6305 69.0229 17.6305C71.2067 17.6305 72.8743 15.9382 73.2912 14.1049H71.0081Z" fill="#05020D" fill-opacity="0.13"/>
<path d="M80.1695 14.7093C80.0702 14.8503 79.9312 14.9712 79.7724 15.072C79.4746 15.2533 79.0974 15.4144 78.482 15.4144C77.2908 15.4144 76.6159 14.7093 76.3975 13.8028H82.7503L82.79 13.5006C82.8098 13.3192 82.8495 13.1178 82.8495 12.8962C82.8495 10.0757 80.8643 8.16187 78.482 8.16187C76.0203 8.16187 73.9159 10.2772 73.9159 12.8962C73.9159 15.5152 76.0203 17.6305 78.482 17.6305C80.5467 17.6305 82.0753 16.0994 82.5518 14.7093H80.1695ZM76.2982 12.1911C76.5166 11.1636 77.2908 10.3779 78.482 10.3779C79.6731 10.3779 80.4474 11.1636 80.6658 12.1911H76.2982Z" fill="#05020D" fill-opacity="0.13"/>
<path d="M15.9386 16.3447H18.3209V3.65273H15.9386V16.3447Z" fill="#27282C"/>
<path d="M19.7398 13.4235C19.9184 15.2568 21.1294 16.4454 23.5117 16.4454C25.5764 16.4454 26.8866 15.1359 26.8866 13.625C26.8866 10.3211 22.2213 11.0866 22.2213 9.79725C22.2213 9.2936 22.6184 8.89069 23.3132 8.89069C24.008 8.89069 24.5043 9.39433 24.6036 9.79725H26.7874C26.569 8.18557 25.4176 6.97681 23.2139 6.97681C21.2287 6.97681 19.9383 8.2863 19.9383 9.79725C19.9383 13.0005 24.6036 12.2148 24.6036 13.5243C24.6036 14.0279 24.1073 14.5316 23.3132 14.5316C22.5191 14.5316 22.0228 14.0481 21.9235 13.4235H19.7398Z" fill="#27282C"/>
<path d="M27.6091 13.4235C27.7878 15.2568 28.9988 16.4454 31.3811 16.4454C33.4457 16.4454 34.756 15.1359 34.756 13.625C34.756 10.3211 30.0907 11.0866 30.0907 9.79725C30.0907 9.2936 30.4877 8.89069 31.1826 8.89069C31.8774 8.89069 32.3737 9.39433 32.473 9.79725H34.6567C34.4384 8.18557 33.2869 6.97681 31.0833 6.97681C29.0981 6.97681 27.8076 8.2863 27.8076 9.79725C27.8076 13.0005 32.473 12.2148 32.473 13.5243C32.473 14.0279 31.9767 14.5316 31.1826 14.5316C30.3885 14.5316 29.8922 14.0481 29.7929 13.4235H27.6091Z" fill="#27282C"/>
<path d="M35.9748 12.517C35.9748 14.9345 37.4836 16.4454 39.6475 16.4454C40.382 16.4454 41.0372 16.2037 41.4938 15.9418C41.7519 15.8008 42.0099 15.6194 42.2283 15.4381L42.6254 16.3447H44.3128V7.07755H42.0298V12.2148C42.0298 13.4235 41.2556 14.2294 40.1438 14.2294C39.0321 14.2294 38.2578 13.4235 38.2578 12.2148V7.07755H35.9748V12.517Z" fill="#27282C"/>
<path d="M51.6929 16.3447H53.3803V10.6031C53.3803 8.50791 51.8715 6.97681 49.8069 6.97681C47.5238 6.97681 46.154 8.40718 45.9356 10.0994H48.2187C48.2584 9.91813 48.3378 9.73682 48.4569 9.5958C48.6753 9.35404 48.9929 9.09214 49.6084 9.09214C50.5017 9.09214 51.0973 9.67638 51.0973 10.7038C46.9283 10.7038 45.6379 11.9932 45.6379 13.8265C45.6379 15.3576 46.7297 16.4454 48.715 16.4454C49.5091 16.4454 50.1444 16.2037 50.601 15.9418C50.8591 15.8008 51.0774 15.6194 51.2958 15.4381L51.6929 16.3447ZM51.0973 12.7184C51.0973 13.8466 50.3032 14.6323 49.112 14.6323C48.4172 14.6323 47.9209 14.1286 47.9209 13.625C47.9209 12.8192 48.4172 12.3155 51.0973 12.3155V12.7184Z" fill="#27282C"/>
<path d="M54.99 16.3447H57.273V11.2075C57.273 9.99871 58.0472 9.19287 59.159 9.19287C60.2707 9.19287 61.045 9.99871 61.045 11.2075V16.3447H63.328V10.9053C63.328 8.48777 61.8192 6.97681 59.6553 6.97681C58.881 6.97681 58.2656 7.23871 57.809 7.48047C57.5509 7.62149 57.2928 7.8028 57.0745 7.98412L56.6774 7.07755H54.99V16.3447Z" fill="#27282C"/>
<path d="M71.0081 12.9199C70.9089 13.1818 70.75 13.4034 70.5714 13.5847C70.2537 13.907 69.7574 14.2294 69.0229 14.2294C67.7325 14.2294 66.7399 13.2422 66.7399 11.7111C66.7399 10.18 67.7325 9.19287 69.0229 9.19287C69.7574 9.19287 70.2537 9.53536 70.5714 9.85769C70.75 10.039 70.9089 10.2606 71.0081 10.5024H73.2912C72.8743 8.66908 71.2067 6.97681 69.0229 6.97681C66.5612 6.97681 64.4568 9.09214 64.4568 11.7111C64.4568 14.3301 66.5612 16.4454 69.0229 16.4454C71.2067 16.4454 72.8743 14.7532 73.2912 12.9199H71.0081Z" fill="#27282C"/>
<path d="M80.1695 13.5243C80.0702 13.6653 79.9312 13.7862 79.7724 13.8869C79.4746 14.0682 79.0974 14.2294 78.482 14.2294C77.2908 14.2294 76.6159 13.5243 76.3975 12.6177H82.7503L82.79 12.3155C82.8098 12.1342 82.8495 11.9327 82.8495 11.7111C82.8495 8.89068 80.8643 6.97681 78.482 6.97681C76.0203 6.97681 73.9159 9.09214 73.9159 11.7111C73.9159 14.3301 76.0203 16.4454 78.482 16.4454C80.5467 16.4454 82.0753 14.9143 82.5518 13.5243H80.1695ZM76.2982 11.006C76.5166 9.97857 77.2908 9.19287 78.482 9.19287C79.6731 9.19287 80.4474 9.97857 80.6658 11.006H76.2982Z" fill="#27282C"/>
</svg>
