<svg width="18" height="18" viewBox="0 0 18 18" fill="none" xmlns="http://www.w3.org/2000/svg">
<path opacity="0.35" d="M4.53004 16.7405C3.12388 16.7405 1.97998 15.5966 1.97998 14.1904L1.9807 4.53053C1.9807 3.12437 3.1246 1.98047 4.53076 1.98047H14.1906C15.5963 1.98047 16.74 3.12437 16.74 4.53053V14.1904C16.74 15.5966 15.5961 16.7405 14.1899 16.7405H4.53004Z" fill="black"/>
<path d="M4.17006 16.3801C2.7639 16.3801 1.62 15.2362 1.62 13.8301L1.62072 4.17018C1.62072 2.76402 2.76462 1.62012 4.17078 1.62012H13.8307C15.2363 1.62012 16.38 2.76402 16.38 4.17018V13.8301C16.38 15.2362 15.2361 16.3801 13.8299 16.3801H4.17006Z" fill="#F2F2F2"/>
<path d="M13.7578 2.88379H4.24369C3.49417 2.88379 2.88451 3.49309 2.88451 4.24297L2.88379 13.757C2.88379 14.5066 3.49345 15.1162 4.24297 15.1162H13.757C14.5076 15.1162 15.1162 14.5076 15.1162 13.757V4.24297C15.1162 3.49309 14.5073 2.88379 13.7578 2.88379ZM4.14001 13.86V4.14001H13.86V13.86H4.14001Z" fill="#70BFFF"/>
<path d="M4.14001 7.74001V4.14001H13.86V7.74001H15.1162V4.24369C15.1162 3.49417 14.5069 2.88451 13.757 2.88451L4.24297 2.88379C3.49345 2.88379 2.88379 3.49345 2.88379 4.24297V7.74001H4.14001Z" fill="#EFB604"/>
<path d="M13.83 15.4795H4.17008C3.26018 15.4795 2.52002 14.7394 2.52002 13.8295L2.52074 4.16959C2.52074 3.25969 3.2609 2.51953 4.1708 2.51953H13.8307C14.7402 2.51953 15.48 3.25969 15.48 4.16959V13.8295C15.48 14.7394 14.7399 15.4795 13.83 15.4795ZM4.1708 3.05953C3.5588 3.05953 3.06074 3.55759 3.06074 4.16959L3.06002 13.8295C3.06002 14.4415 3.55808 14.9395 4.17008 14.9395H13.83C14.442 14.9395 14.94 14.4415 14.94 13.8295V4.16959C14.94 3.55759 14.4423 3.05953 13.8307 3.05953H4.1708Z" fill="#424446"/>
<path d="M14.58 6.66016V7.74016H3.42004V6.66016H14.58Z" fill="#EFB604"/>
<path d="M14.58 10.2598V11.3398H3.42004V10.2598H14.58Z" fill="#70BFFF"/>
</svg>
