<svg width="13" height="14" viewBox="0 0 13 14" fill="none" xmlns="http://www.w3.org/2000/svg">
<path d="M0.0548255 9.68218C-0.0810161 10.2242 0.0381917 10.7883 0.38334 11.2277C0.727103 11.6685 1.24552 11.9208 1.80413 11.9208H3.80849C4.00671 13.099 5.03245 14 6.26611 14C7.49978 14 8.52413 13.099 8.72374 11.9208H10.7281C11.2867 11.9208 11.8051 11.6685 12.1489 11.2277C12.4926 10.7869 12.6119 10.2242 12.4774 9.68218L10.9734 3.67743C10.4328 1.51228 8.49641 0 6.26473 0C4.03304 0 2.09661 1.51228 1.55601 3.67743L0.0548255 9.68218ZM6.26473 13.1683C5.49126 13.1683 4.84116 12.6374 4.65542 11.9208H7.87265C7.68829 12.6374 7.03819 13.1683 6.26473 13.1683ZM6.26473 0.831683C8.11384 0.831683 9.71898 2.08475 10.1667 3.87842L11.6679 9.88317C11.7414 10.1756 11.6762 10.4778 11.4919 10.7162C11.3061 10.9533 11.0275 11.0891 10.7267 11.0891H1.80275C1.50195 11.0891 1.22334 10.9533 1.0376 10.7162C0.851855 10.4792 0.788093 10.1756 0.861558 9.88317L2.36275 3.87842C2.81047 2.08475 4.41562 0.831683 6.26473 0.831683Z" fill="#424446"/>
<path d="M6.26473 0.831683C8.11384 0.831683 9.71898 2.08475 10.1667 3.87842L11.6679 9.88317C11.7414 10.1756 11.6762 10.4778 11.4919 10.7162C11.3061 10.9533 11.0275 11.0891 10.7267 11.0891H1.80275C1.50195 11.0891 1.22334 10.9533 1.0376 10.7162C0.851855 10.4792 0.788093 10.1756 0.861558 9.88317L2.36275 3.87842C2.81047 2.08475 4.41562 0.831683 6.26473 0.831683Z" fill="#424446"/>
<path d="M6.26473 13.1683C5.49126 13.1683 4.84116 12.6374 4.65542 11.9208H7.87265C7.68829 12.6374 7.03819 13.1683 6.26473 13.1683Z" fill="#424446"/>
</svg>
