<svg width="31" height="31" viewBox="0 0 31 31" fill="none" xmlns="http://www.w3.org/2000/svg">
<path fill-rule="evenodd" clip-rule="evenodd" d="M4.00127 21.1885L16.1813 9.00841C16.5638 8.62595 17.1813 8.62584 17.5622 9.00656L21.9955 13.4384C22.3726 13.8154 22.3756 14.4373 21.9938 14.8191L9.81377 27.0009C9.43131 27.3834 8.69283 27.6922 8.16274 27.6922H4.26987C3.72808 27.6922 3.31006 27.2625 3.31006 26.7324V22.8395C3.31006 22.2977 3.61952 21.5702 4.00127 21.1885ZM24.0626 3.88295L27.1212 6.94049C27.8769 7.69593 27.8823 8.93421 27.1213 9.69437L25.2975 11.5164C24.9264 11.8871 24.3134 11.8824 23.9326 11.5017L19.4993 7.06984C19.1222 6.69287 19.1119 6.07828 19.4846 5.7055L21.3076 3.88256C22.0792 3.11094 23.3016 3.12219 24.0626 3.88295Z" fill="white"/>
</svg>
