<svg width="20" height="18" viewBox="0 0 20 18" fill="none" xmlns="http://www.w3.org/2000/svg">
<g clip-path="url(#clip0_87233_4440)">
<path opacity="0.35" d="M9.56251 18.0002C8.75611 18.0002 8.10001 17.3441 8.10001 16.5377V13.5002H1.91251C1.10611 13.5002 0.450012 12.8441 0.450012 12.0377V5.1752C0.450012 2.56992 2.56951 0.450195 5.17501 0.450195H14.625C17.2305 0.450195 19.35 2.56992 19.35 5.1752V12.0377C19.35 12.8441 18.6939 13.5002 17.8875 13.5002H13.05V16.5377C13.05 17.3441 12.3939 18.0002 11.5875 18.0002H9.56251Z" fill="black"/>
<path d="M9.1125 17.55C8.3061 17.55 7.65 16.8939 7.65 16.0875V13.05H1.4625C0.6561 13.05 0 12.3939 0 11.5875V4.725C0 2.11972 2.1195 0 4.725 0H14.175C16.7805 0 18.9 2.11972 18.9 4.725V11.5875C18.9 12.3939 18.2439 13.05 17.4375 13.05H12.6V16.0875C12.6 16.8939 11.9439 17.55 11.1375 17.55H9.1125Z" fill="#F2F2F2"/>
<path d="M17.28 11.6554H4.77899V1.81836H14.1698C15.8875 1.81836 17.28 3.21088 17.28 4.92853V11.6554Z" fill="#D9EEFF"/>
<path d="M11.025 11.25H9.20114V15.8987H11.025V11.25Z" fill="#40A4EC"/>
<path d="M7.875 11.5873H1.36215V5.05623C1.36215 3.2578 2.82015 1.7998 4.61858 1.7998C6.417 1.7998 7.875 3.2578 7.875 5.05623V11.5873Z" fill="#EFB604"/>
<path d="M15.525 3.8252H13.5V6.7502H15.525V3.8252Z" fill="#D9EEFF"/>
<path d="M11.1375 16.425H9.1125C8.92597 16.425 8.775 16.274 8.775 16.0875V11.925H1.4625C1.27597 11.925 1.125 11.774 1.125 11.5875V4.725C1.125 2.74005 2.74005 1.125 4.725 1.125H14.175C16.1599 1.125 17.775 2.74005 17.775 4.725V11.5875C17.775 11.774 17.624 11.925 17.4375 11.925H11.475V16.0875C11.475 16.274 11.324 16.425 11.1375 16.425ZM9.45 15.75H10.8V11.5875C10.8 11.401 10.951 11.25 11.1375 11.25H17.1V4.725C17.1 3.1122 15.7878 1.8 14.175 1.8H4.725C3.1122 1.8 1.8 3.1122 1.8 4.725V11.25H9.1125C9.29902 11.25 9.45 11.401 9.45 11.5875V15.75Z" fill="#424446"/>
<path d="M6.41249 6.07539H3.26249C3.07619 6.07539 2.92499 5.92419 2.92499 5.73789C2.92499 5.55159 3.07619 5.40039 3.26249 5.40039H6.41249C6.59879 5.40039 6.74999 5.55159 6.74999 5.73789C6.74999 5.92419 6.59879 6.07539 6.41249 6.07539Z" fill="#D9EEFF"/>
</g>
<defs>
<clipPath id="clip0_87233_4440">
<rect width="19.35" height="18" fill="white"/>
</clipPath>
</defs>
</svg>
