<svg width="16" height="16" viewBox="0 0 16 16" fill="none" xmlns="http://www.w3.org/2000/svg">
<path fill-rule="evenodd" clip-rule="evenodd" d="M6.64824 10.297C4.63324 10.297 3.00024 8.664 3.00024 6.649C3.00024 4.634 4.63324 3 6.64824 3C8.66324 3 10.2962 4.634 10.2962 6.649C10.2962 8.664 8.66324 10.297 6.64824 10.297ZM14.7072 12.643L11.5992 9.707C11.5552 9.663 11.4992 9.642 11.4502 9.608C11.9832 8.746 12.2962 7.734 12.2962 6.649C12.2962 3.534 9.76324 1 6.64824 1C3.53324 1 1.00024 3.534 1.00024 6.649C1.00024 9.763 3.53324 12.297 6.64824 12.297C7.64924 12.297 8.58824 12.033 9.40424 11.574C9.44524 11.641 9.47624 11.713 9.53524 11.771L12.6432 14.707C13.0332 15.098 13.6662 15.098 14.0572 14.707L14.7072 14.057C15.0972 13.667 15.0972 13.034 14.7072 12.643Z" fill="#757575"/>
</svg>
