<svg width="18" height="18" viewBox="0 0 18 18" fill="none" xmlns="http://www.w3.org/2000/svg">
<g clip-path="url(#clip0_87233_4172)">
<path opacity="0.35" d="M1.7688 17.9986C1.023 17.9986 0.416199 17.3918 0.416199 16.646V14.2517C0.416199 14.1624 0.425147 14.0731 0.442418 13.9859L2.52376 3.68329C2.6509 3.05464 3.20859 2.5985 3.84972 2.5985H6.78341C6.93678 1.4259 7.94228 0.517578 9.15608 0.517578C10.3699 0.517578 11.3754 1.4259 11.5288 2.5985H14.4624C15.1036 2.5985 15.6613 3.05464 15.7882 3.68308L17.8693 13.9839C17.887 14.0729 17.896 14.1624 17.896 14.2517V16.646C17.896 17.3918 17.2892 17.9986 16.5434 17.9986H1.7688Z" fill="#1D1D1B"/>
<path d="M1.3526 17.5826C0.606798 17.5826 0 16.9758 0 16.23V13.8357C0 13.7464 0.00894806 13.6571 0.0262197 13.5699L2.10756 3.26727C2.23471 2.63863 2.79239 2.18249 3.43353 2.18249H6.36721C6.52058 1.00989 7.52608 0.101562 8.73988 0.101562C9.95369 0.101562 10.9592 1.00989 11.1126 2.18249H14.0462C14.6874 2.18249 15.2451 2.63863 15.372 3.26707L17.4531 13.5679C17.4708 13.6569 17.4798 13.7464 17.4798 13.8357V16.23C17.4798 16.9758 16.873 17.5826 16.1272 17.5826H1.3526Z" fill="#F2F2F2"/>
<path d="M14.0462 3.53516H3.43352L1.3526 13.8357V16.2298H16.1272V13.8357L14.0462 3.53516Z" fill="#D9EEFF"/>
<path d="M16.1272 13.8359H1.3526V16.229H16.1272V13.8359Z" fill="#EFB604"/>
<path d="M8.77193 11.8586C8.66081 11.8586 8.56883 11.8212 8.49642 11.7465C8.42358 11.6718 8.38758 11.5808 8.38758 11.4741V11.0962C8.13975 11.0789 7.92083 11.0396 7.73084 10.9776C7.54065 10.9158 7.37958 10.8506 7.24703 10.7824C7.12758 10.7225 7.05246 10.6382 7.02291 10.5291C6.99274 10.4203 6.99815 10.3156 7.03873 10.2151C7.07931 10.1146 7.14777 10.0422 7.2437 9.99725C7.33984 9.9523 7.45429 9.96208 7.58643 10.0262C7.68902 10.0817 7.83219 10.1383 8.01572 10.1958C8.19947 10.2534 8.42358 10.2823 8.68849 10.2823C8.98314 10.2823 9.19249 10.2353 9.31651 10.1412C9.44032 10.0474 9.50234 9.92983 9.50234 9.78895C9.50234 9.67366 9.45968 9.57753 9.37436 9.50053C9.28883 9.42374 9.13505 9.36173 8.91281 9.3147L8.208 9.16092C7.43057 8.99029 7.04185 8.57556 7.04185 7.91778C7.04185 7.55882 7.16358 7.25563 7.40726 7.008C7.65073 6.76037 7.97743 6.6043 8.38758 6.54021V6.13651C8.38758 6.02976 8.42379 5.93903 8.49642 5.86411C8.56904 5.78962 8.66081 5.75195 8.77193 5.75195C8.87868 5.75195 8.96816 5.78962 9.04099 5.86411C9.11362 5.93882 9.14983 6.02976 9.14983 6.13651V6.52106C9.30798 6.5427 9.47133 6.58099 9.63988 6.63655C9.80844 6.69211 9.95702 6.76453 10.0854 6.85443C10.1878 6.91852 10.2508 7.00072 10.2744 7.10122C10.2977 7.20152 10.2881 7.29642 10.2454 7.38631C10.2028 7.476 10.1333 7.53905 10.0371 7.57526C9.94099 7.61168 9.82467 7.59565 9.68795 7.5274C9.57246 7.47184 9.44657 7.42481 9.30985 7.38631C9.17313 7.34781 9.00437 7.32867 8.80356 7.32867C8.55593 7.32867 8.36157 7.37986 8.22049 7.48245C8.0794 7.58483 8.00906 7.71739 8.00906 7.8797C8.00906 7.99498 8.05047 8.09008 8.13392 8.16478C8.21736 8.23949 8.36365 8.30046 8.57279 8.34749L9.28405 8.50106C9.68983 8.59096 9.9901 8.73725 10.1843 8.93993C10.3788 9.14303 10.4758 9.40252 10.4758 9.7184C10.4758 10.0815 10.353 10.3808 10.1073 10.6157C9.8615 10.8506 9.54229 11.0023 9.1492 11.0708V11.4743C9.1492 11.581 9.11279 11.6718 9.04037 11.7467C8.96816 11.8212 8.87868 11.8586 8.77193 11.8586Z" fill="#40A4EC"/>
<path d="M16.1272 16.5418H1.35261C1.1803 16.5418 1.04047 16.402 1.04047 16.2297V13.8354C1.04047 13.8146 1.04255 13.794 1.0465 13.7736L3.12743 3.47299C3.15698 3.32733 3.28495 3.22266 3.43353 3.22266H14.0462C14.1948 3.22266 14.3228 3.32733 14.3524 3.47299L16.4333 13.7736C16.4372 13.794 16.4393 13.8146 16.4393 13.8354V16.2297C16.4393 16.402 16.2995 16.5418 16.1272 16.5418ZM1.66474 15.9175H15.815V13.8668L13.7907 3.84714H3.68907L1.66474 13.8666V15.9175Z" fill="#424446"/>
<path d="M8.73987 3.84778C7.99407 3.84778 7.38727 3.24098 7.38727 2.49518C7.38727 1.74938 7.99407 1.14258 8.73987 1.14258C9.48567 1.14258 10.0925 1.74938 10.0925 2.49518C10.0925 3.24098 9.48567 3.84778 8.73987 3.84778ZM8.73987 1.76686C8.33825 1.76686 8.01155 2.09356 8.01155 2.49518C8.01155 2.8968 8.33825 3.2235 8.73987 3.2235C9.14149 3.2235 9.46819 2.8968 9.46819 2.49518C9.46819 2.09356 9.14149 1.76686 8.73987 1.76686Z" fill="#424446"/>
</g>
<defs>
<clipPath id="clip0_87233_4172">
<rect width="17.896" height="18" fill="white"/>
</clipPath>
</defs>
</svg>
