<svg width="17" height="17" viewBox="0 0 17 17" fill="none" xmlns="http://www.w3.org/2000/svg">
<path fill-rule="evenodd" clip-rule="evenodd" d="M1.41675 4.24984C1.41675 2.68442 2.67333 1.4165 4.25008 1.4165H12.7501C14.3155 1.4165 15.5834 2.67309 15.5834 4.24984V12.7498C15.5834 14.3153 14.3268 15.5832 12.7501 15.5832H4.25008C2.68466 15.5832 1.41675 14.3266 1.41675 12.7498V4.24984ZM6.2575 11.8333C6.52465 12.0948 6.88354 12.2413 7.25738 12.2416C7.63121 12.2419 7.99031 12.0958 8.25783 11.8347L12.2982 7.8255C12.5606 7.56011 12.7073 7.20164 12.7062 6.82842C12.7052 6.4552 12.5564 6.09757 12.2925 5.83367L12.4823 6.02492C12.3528 5.89329 12.1981 5.78901 12.0275 5.71826C11.8569 5.64752 11.6738 5.61174 11.4891 5.61306C11.3044 5.61438 11.1218 5.65277 10.9523 5.72595C10.7827 5.79913 10.6295 5.90561 10.5018 6.03909L7.745 8.8965C7.68313 8.96135 7.60856 9.01273 7.52593 9.04745C7.44331 9.08216 7.35441 9.09946 7.2648 9.09827C7.17519 9.09707 7.08679 9.0774 7.00512 9.04049C6.92345 9.00358 6.85028 8.95022 6.79016 8.88375L6.56775 8.6415C6.4447 8.50489 6.29514 8.39473 6.12818 8.31773C5.96122 8.24072 5.78034 8.19849 5.59654 8.19358C5.41274 8.18868 5.22987 8.22121 5.05904 8.28921C4.88821 8.3572 4.73299 8.45923 4.60283 8.58909L4.79408 8.39784C4.66288 8.52854 4.55878 8.68385 4.48775 8.85488C4.41671 9.0259 4.38015 9.20927 4.38015 9.39446C4.38015 9.57965 4.41671 9.76302 4.48775 9.93405C4.55878 10.1051 4.66288 10.2604 4.79408 10.3911L6.2575 11.8361V11.8333Z" fill="#333333"/>
</svg>
