<svg width="18" height="18" viewBox="0 0 18 18" fill="none" xmlns="http://www.w3.org/2000/svg">
<g clip-path="url(#clip0_87032_30064)">
<path opacity="0.35" d="M3.4059 18.0003C1.79056 18.0003 0.476562 16.6863 0.476562 15.071V4.20023C0.476562 2.58489 1.79056 1.27089 3.4059 1.27089H5.63621L6.12644 0.823005C6.3831 0.568675 6.7323 0.423828 7.09421 0.423828H10.5324C10.6574 0.423828 10.7817 0.440769 10.9022 0.474228C11.0885 0.523358 11.2772 0.622463 11.4339 0.757569L12.0273 1.27089H14.2764C15.8918 1.27089 17.2058 2.58489 17.2058 4.20023V15.071C17.2058 16.6863 15.8918 18.0003 14.2764 18.0003H3.4059Z" fill="black"/>
<path d="M2.98232 17.5765C1.36698 17.5765 0.0529785 16.2625 0.0529785 14.6471V3.7764C0.0529785 2.16106 1.36698 0.847059 2.98232 0.847059H5.21263L5.70286 0.399177C5.95952 0.144847 6.30872 0 6.67063 0H10.1088C10.2338 0 10.3581 0.0169412 10.4786 0.0504C10.6649 0.0995294 10.8536 0.198635 11.0103 0.333741L11.6037 0.847059H13.8528C15.4682 0.847059 16.7822 2.16106 16.7822 3.7764V14.6471C16.7822 16.2625 15.4682 17.5765 13.8528 17.5765H2.98232Z" fill="#F2F2F2"/>
<path d="M13.853 16.2001H2.98231C2.12467 16.2001 1.42944 15.5047 1.42944 14.6472V3.7765C1.42944 2.91886 2.12488 2.22363 2.98231 2.22363H13.8528C14.7105 2.22363 15.4057 2.91907 15.4057 3.7765V14.647C15.4059 15.5047 14.7105 16.2001 13.853 16.2001Z" fill="#2F93DA"/>
<path d="M5.76172 2.46777H11.034L8.50852 11.219L5.76172 2.46777Z" fill="#D9EEFF"/>
<path d="M6.6709 1.37695H10.1091L10.1165 3.69345H6.67852L6.6709 1.37695Z" fill="#2B59A1"/>
<path d="M8.4177 4.94143L6.58594 3.24414H10.2495L8.4177 4.94143Z" fill="#40396E"/>
<path d="M9.93442 7.15808L8.42178 3.82617L6.90894 7.15808L8.42178 11.3968L9.93442 7.15808Z" fill="#40396E"/>
<path d="M3.75069 3.82637C4.4277 3.29844 5.7705 2.19727 5.7705 2.19727L9.02278 12.5119L3.1228 6.26294L4.71294 4.79265L3.75069 3.82637Z" fill="#68CCFF"/>
<path d="M13.853 2.22363H11.055L8.01318 12.5118V16.2001H11.5236H13.0765H13.853C14.7107 16.2001 15.4059 15.5047 15.4059 14.6472V3.7765C15.4059 2.91907 14.7105 2.22363 13.853 2.22363Z" fill="#707CC0"/>
<path d="M13.853 2.22363H11.055L8.01318 12.5118V16.2001H11.5236H13.0765H13.853C14.7107 16.2001 15.4059 15.5047 15.4059 14.6472V3.7765C15.4059 2.91907 14.7105 2.22363 13.853 2.22363Z" fill="#40A4EC"/>
<path d="M9.05944 13.844C9.35183 13.844 9.58885 13.607 9.58885 13.3146C9.58885 13.0222 9.35183 12.7852 9.05944 12.7852C8.76706 12.7852 8.53003 13.0222 8.53003 13.3146C8.53003 13.607 8.76706 13.844 9.05944 13.844Z" fill="#40396E"/>
<path d="M13.1254 3.82637C12.4484 3.29844 11.0647 2.19727 11.0647 2.19727L8.01318 12.5119L13.7533 6.26294L12.1631 4.79265L13.1254 3.82637Z" fill="#68CCFF"/>
<path d="M8.41435 3.24429L6.67047 5.08284L5.71753 2.25048L6.67386 1.37695L8.41435 3.24429Z" fill="#EFB604"/>
<path d="M8.41455 3.24429L10.2177 5.05636L11.0913 2.22401L10.1118 1.37695L8.41455 3.24429Z" fill="#EFB604"/>
<path d="M13.8531 16.5174H2.98233C1.95104 16.5174 1.11182 15.6782 1.11182 14.6469V3.77617C1.11182 2.74488 1.95104 1.90565 2.98233 1.90565H5.62346L6.43897 1.16088C6.49678 1.09798 6.57937 1.05859 6.67106 1.05859H10.1093C10.1391 1.05859 10.1677 1.06283 10.1953 1.07045C10.2399 1.08231 10.2825 1.10391 10.3198 1.1361L11.2096 1.90586H13.8531C14.8844 1.90586 15.7236 2.74509 15.7236 3.77638V14.6471C15.7236 15.6782 14.8844 16.5174 13.8531 16.5174ZM2.98233 2.54095C2.30109 2.54095 1.74711 3.09492 1.74711 3.77617V14.6469C1.74711 15.3281 2.30109 15.8821 2.98233 15.8821H13.8531C14.5343 15.8821 15.0883 15.3281 15.0883 14.6469V3.77617C15.0883 3.09492 14.5343 2.54095 13.8531 2.54095H11.098C11.026 2.54095 10.9563 2.51659 10.9 2.47191C10.8848 2.46259 10.8697 2.45201 10.856 2.44015L9.99344 1.69389H6.79727L5.986 2.43485C5.97012 2.44925 5.95318 2.46196 5.93497 2.47297C5.87906 2.51702 5.80982 2.54095 5.73845 2.54095H2.98233Z" fill="#424446"/>
</g>
<defs>
<clipPath id="clip0_87032_30064">
<rect width="17.4" height="18" fill="white"/>
</clipPath>
</defs>
</svg>
